<?xml version="1.0" encoding="UTF-8" standalone="no"?><!DOCTYPE svg PUBLIC "-//W3C//DTD SVG 1.1//EN" "http://www.w3.org/Graphics/SVG/1.1/DTD/svg11.dtd"><svg width="100%" height="100%" viewBox="0 0 128 128" version="1.1" xmlns="http://www.w3.org/2000/svg" xmlns:xlink="http://www.w3.org/1999/xlink" xml:space="preserve" style="fill-rule:evenodd;clip-rule:evenodd;stroke-linejoin:round;stroke-miterlimit:1.41421;"><g><path d="M64,1.023l0,0.002l0,-0.002c-30,0 -54.557,8.074 -54.557,18.1c0,2.64 6.55,40.504 9.147,55.52c1.165,6.733 18.56,16.607 45.39,16.607l0.02,-0.08l0,0.08c27,0 44.238,-9.874 45.403,-16.61c2.598,-15.015 9.15,-52.878 9.15,-55.518c0.001,-10.025 -24.553,-18.1 -54.553,-18.1l0,0.001Zm0,78.062c-9.578,0 -17.343,-7.766 -17.343,-17.343c0,-9.578 7.765,-17.342 17.343,-17.342c9.578,0 17.343,7.764 17.343,17.343c0,9.577 -7.765,17.342 -17.343,17.342Zm-0.01,-54.368c-19.296,-0.03 -34.934,-3.384 -34.928,-7.49c0.007,-4.107 15.656,-7.41 34.952,-7.378c19.296,0.03 34.934,3.382 34.927,7.49c-0.005,4.106 -15.653,7.407 -34.95,7.377l-0.001,0.001Z" style="fill:#4d4d4d;fill-rule:nonzero;"/><path d="M103.212,89.69c-0.83,0 -1.494,0.588 -1.494,0.588c0,0 -13.435,10.64 -37.718,10.64c-24.283,0 -37.718,-10.64 -37.718,-10.64c0,0 -0.665,-0.587 -1.494,-0.587c-0.99,0 -1.93,0.666 -1.93,2.135c0,0.155 0.015,0.31 0.044,0.462c2.085,11.16 3.61,19.09 3.876,20.296c1.82,8.21 17.88,14.417 37.22,14.417l0.002,0c19.342,0 35.402,-6.207 37.222,-14.417c0.268,-1.205 1.79,-9.13 3.876,-20.29c0.028,-0.153 0.044,-0.31 0.044,-0.465c0,-1.47 -0.94,-2.137 -1.93,-2.137l0,-0.002Z" style="fill:#4d4d4d;fill-rule:nonzero;"/><circle cx="63.983" cy="61.737" r="8.691" style="fill:#4d4d4d;"/></g></svg>