<?xml version="1.0" encoding="UTF-8" standalone="no"?><!DOCTYPE svg PUBLIC "-//W3C//DTD SVG 1.1//EN" "http://www.w3.org/Graphics/SVG/1.1/DTD/svg11.dtd"><svg width="100%" height="100%" viewBox="0 0 128 128" version="1.1" xmlns="http://www.w3.org/2000/svg" xmlns:xlink="http://www.w3.org/1999/xlink" xml:space="preserve" style="fill-rule:evenodd;clip-rule:evenodd;stroke-linejoin:round;stroke-miterlimit:1.41421;"><path d="M45.288,49.559c4.417,13.507 6.09,37.601 19.006,37.601c0.982,0 1.977,-0.096 2.974,-0.286c-11.74,-2.737 -13.132,-26.569 -20.297,-38.912c-0.562,0.511 -1.118,1.043 -1.683,1.597" style="fill:url(#_Linear1);fill-rule:nonzero;"/><path d="M46.971,47.962c7.165,12.342 8.557,36.174 20.297,38.912c0.923,-0.169 1.847,-0.426 2.773,-0.749c-10.539,-5.164 -13.451,-28.306 -21.588,-39.447c-0.492,0.41 -0.987,0.839 -1.482,1.284" style="fill:url(#_Linear2);fill-rule:nonzero;"/><path d="M57.294,40.623c-0.98,0 -1.977,0.096 -2.977,0.286c-2.612,0.493 -5.268,1.618 -7.944,3.321c0.73,0.722 1.427,1.547 2.081,2.448c2.723,-2.259 5.427,-3.928 8.12,-4.932c1.012,-0.375 2.019,-0.656 3.029,-0.842c-0.729,-0.184 -1.497,-0.281 -2.309,-0.281" style="fill:#535353;fill-rule:nonzero;"/><path d="M78.268,81.366c1.078,-0.857 2.158,-1.805 3.24,-2.84c-4.488,-13.443 -6.095,-37.883 -19.101,-37.883c-0.93,0 -1.868,0.087 -2.804,0.26c11.847,2.947 13.365,28.722 18.665,40.463" style="fill:url(#_Linear3);fill-rule:nonzero;"/><path d="M59.604,40.904c-0.729,-0.185 -1.498,-0.282 -2.311,-0.282l5.114,0.019c-0.929,0 -1.867,0.086 -2.803,0.263" style="fill:#888;fill-rule:nonzero;"/><path d="M78.04,84.221c-0.508,-0.485 -0.991,-1.017 -1.466,-1.584c-2.188,1.549 -4.368,2.724 -6.533,3.489c0.771,0.376 1.578,0.656 2.436,0.829c0.664,0.136 1.353,0.206 2.075,0.206c2.431,0 4.353,-0.288 5.987,-1.072c-0.9,-0.488 -1.726,-1.118 -2.499,-1.868" style="fill:#666;fill-rule:nonzero;"/><path d="M56.573,41.748c10.611,5.55 11.534,30.684 20.001,40.889c0.568,-0.4 1.13,-0.824 1.691,-1.271c-5.3,-11.741 -6.815,-37.519 -18.66,-40.463c-1.011,0.189 -2.02,0.469 -3.032,0.845" style="fill:url(#_Linear4);fill-rule:nonzero;"/><path d="M48.453,46.678c8.137,11.141 11.049,34.284 21.588,39.448c2.166,-0.765 4.346,-1.939 6.533,-3.489c-8.467,-10.205 -9.39,-35.338 -20.001,-40.889c-2.693,1.002 -5.397,2.671 -8.12,4.93" style="fill:url(#_Linear5);fill-rule:nonzero;"/><path d="M40.083,49.234c-1.275,2.883 -2.578,6.674 -4.152,11.621c3.131,-4.413 6.253,-8.214 9.357,-11.295c-0.428,-1.314 -0.887,-2.527 -1.382,-3.606c-1.269,0.97 -2.549,2.064 -3.823,3.28" style="fill:url(#_Linear6);fill-rule:nonzero;"/><path d="M45.037,45.121c-0.374,0.268 -0.751,0.542 -1.13,0.832c0.495,1.08 0.953,2.292 1.38,3.607c0.564,-0.552 1.124,-1.086 1.684,-1.597c-0.601,-1.033 -1.24,-1.986 -1.934,-2.842" style="fill:#6e6e6e;fill-rule:nonzero;"/><path d="M46.373,44.229c-0.445,0.282 -0.888,0.58 -1.337,0.891c0.695,0.855 1.333,1.81 1.936,2.844c0.495,-0.448 0.989,-0.879 1.482,-1.287c-0.654,-0.9 -1.35,-1.726 -2.081,-2.448" style="fill:#575757;fill-rule:nonzero;"/><path d="M118.751,39.594c-6.001,23.144 -18.536,41.734 -29.044,46.42l-0.021,0l-0.567,0.243l-0.069,0.027l-0.161,0.062l-0.072,0.03l-0.263,0.093l-0.108,0.038l-0.131,0.043l-0.126,0.044l-0.112,0.038l-0.224,0.068l-0.096,0.025l-0.151,0.041l-0.103,0.028l-0.165,0.043l-0.201,0.044c0.475,0.175 0.97,0.264 1.503,0.264c9.965,0 20.013,-17.858 36.638,-47.556l-6.528,0l0.001,0.005Z" style="fill:url(#_Linear7);fill-rule:nonzero;"/><path d="M33.766,41.563l0.019,-0.016l0.023,-0.015l0.013,0l0.161,-0.062l0.032,-0.016l0.042,-0.017l0.173,-0.062l0.009,0l0.383,-0.134l0.057,-0.015l0.164,-0.049l0.075,-0.024l0.165,-0.049l0.063,-0.017l0.548,-0.142l0.075,-0.017l0.16,-0.031l0.078,-0.024l0.161,-0.03l0.038,0l0.333,-0.062l0.066,0l0.154,-0.027l0.087,-0.015l0.147,-0.022l0.081,-0.016l0.358,-0.032c-0.345,-0.032 -0.699,-0.054 -1.061,-0.054c-11.223,0 -26.685,20.822 -33.649,47.788l1.343,0c2.229,-3.975 4.231,-7.736 6.062,-11.266c4.879,-19.1 14.814,-32.126 23.64,-35.577" style="fill:url(#_Linear8);fill-rule:nonzero;"/><path d="M40.083,49.234c1.275,-1.216 2.554,-2.31 3.823,-3.281c-0.289,-0.634 -0.589,-1.222 -0.911,-1.761c-1.026,1.246 -1.964,2.89 -2.912,5.042" style="fill:#7b7b7b;fill-rule:nonzero;"/><path d="M41.005,41.72c0.733,0.614 1.39,1.46 1.99,2.473c0.189,-0.232 0.381,-0.447 0.58,-0.649c-0.834,-0.778 -1.734,-1.416 -2.712,-1.897l0.12,0.057l0.022,0.016" style="fill:#7b7b7b;fill-rule:nonzero;"/><path d="M10.127,77.138c10.233,-19.719 15.081,-32.199 23.64,-35.577c-8.825,3.454 -18.762,16.479 -23.64,35.577" style="fill:url(#_Linear9);fill-rule:nonzero;"/><path d="M43.574,43.544c-0.199,0.204 -0.389,0.417 -0.58,0.649c0.322,0.538 0.621,1.124 0.913,1.76c0.378,-0.29 0.756,-0.563 1.129,-0.832c-0.462,-0.571 -0.951,-1.101 -1.462,-1.577" style="fill:#757575;fill-rule:nonzero;"/><path d="M14.773,88.315l-0.186,0.022l-0.035,0l-0.158,0.016l-0.026,0l-0.376,0.025l-0.039,0c10.356,-0.29 15.091,-5.475 17.44,-12.997c1.785,-5.701 3.252,-10.505 4.537,-14.535c-4.338,6.106 -8.696,13.384 -13.077,21.539c-2.112,3.93 -5.325,5.572 -8.08,5.922" style="fill:url(#_Linear10);fill-rule:nonzero;"/><path d="M14.773,88.311c2.755,-0.351 5.968,-1.991 8.08,-5.923c4.381,-8.151 8.741,-15.431 13.075,-21.538c1.577,-4.949 2.878,-8.737 4.154,-11.621c-8.639,8.223 -17.311,21.896 -25.31,39.077" style="fill:url(#_Linear11);fill-rule:nonzero;"/><path d="M10.127,77.139c-1.831,3.53 -3.833,7.291 -6.063,11.266l3.904,0c0.517,-3.948 1.249,-7.711 2.158,-11.264" style="fill:#969696;fill-rule:nonzero;"/><path d="M37.073,40.709l-0.083,0.016l-0.146,0.021l-0.086,0.015l-0.154,0.027l-0.066,0.016l-0.333,0.058l-0.038,0l-0.162,0.032l-0.081,0.022l-0.157,0.031l-0.074,0.018l-0.549,0.142l-0.063,0.018l-0.166,0.049l-0.075,0.021l-0.163,0.049l-0.06,0.016l-0.381,0.134l-0.173,0.06l-0.072,0.03l-0.161,0.06l-0.054,0.026c-8.558,3.377 -13.406,15.857 -23.639,35.576c-0.909,3.552 -1.645,7.316 -2.158,11.264l0.547,0l3.755,-0.016l1.723,0l0.375,-0.025l0.024,0l0.158,-0.016l0.037,0l0.186,-0.022c8,-17.182 16.672,-30.854 25.31,-39.077c0.95,-2.152 1.887,-3.796 2.911,-5.04c-0.6,-1.013 -1.256,-1.861 -1.988,-2.476l-0.021,-0.016l-0.122,-0.059l-0.121,-0.061l-0.117,-0.057l-0.139,-0.058l-0.108,-0.047l-0.227,-0.095l-0.097,-0.036l-0.169,-0.068l-0.091,-0.03l-0.235,-0.081l-0.019,0l-0.272,-0.077l-0.061,-0.019l-0.229,-0.064l-0.053,-0.015c-0.185,-0.05 -0.376,-0.088 -0.569,-0.125l-0.059,-0.016l-0.247,-0.04l-0.049,-0.015l-0.292,-0.039l-0.051,0l-0.226,-0.025l-0.358,0.033" style="fill:url(#_Linear12);fill-rule:nonzero;"/><path d="M95.311,52.407c-1.97,6.307 -3.563,11.51 -4.952,15.791c5.403,-7.435 10.725,-16.787 15.792,-27.579c-5.913,1.857 -9.065,6.107 -10.84,11.788" style="fill:url(#_Linear13);fill-rule:nonzero;"/><path d="M90.53,85.621c-0.275,0.14 -0.552,0.273 -0.823,0.394c10.508,-4.687 23.044,-23.277 29.044,-46.421l-1.216,0c-13.788,24.631 -18.222,41.12 -27.005,46.027" style="fill:url(#_Linear14);fill-rule:nonzero;"/><path d="M83.668,83.552c2.287,-2.791 4.148,-7.535 6.691,-15.354c-2.933,4.029 -5.885,7.492 -8.84,10.316l-0.015,0.025c0.645,1.931 1.352,3.636 2.158,5.012" style="fill:#909090;fill-rule:nonzero;"/><path d="M83.668,83.552c-0.778,0.95 -1.603,1.673 -2.519,2.209c-0.2,0.117 -0.404,0.227 -0.61,0.327c0.968,0.522 2.023,0.872 3.206,1.011l0.524,0.046l0.031,0l0.252,0.016l0.855,0l0.097,-0.016l0.189,-0.016l0.092,0l0.205,-0.022l0.017,0l0.063,-0.015l0.219,-0.034l0.064,0l0.246,-0.041l0.04,0l0.491,-0.104c-1.357,-0.496 -2.492,-1.667 -3.469,-3.334" style="fill:#666;fill-rule:nonzero;"/><path d="M64.295,87.161c0.982,0 1.976,-0.096 2.973,-0.288c0.924,-0.167 1.848,-0.424 2.773,-0.747c0.771,0.376 1.579,0.656 2.435,0.831c0.664,0.135 1.354,0.205 2.077,0.205l-10.258,0l0,-0.001Z" style="fill:#5c5c5c;fill-rule:nonzero;"/><path d="M74.553,87.161c2.429,0 4.353,-0.288 5.986,-1.073c0.968,0.523 2.023,0.872 3.206,1.012l0.524,0.045l0.031,0l0.252,0.016l0.302,0l-10.301,0l0,0Z" style="fill:#5c5c5c;fill-rule:nonzero;"/><path d="M84.854,87.161l0.561,0l0.097,-0.016l0.191,-0.016l0.092,0l0.204,-0.022l0.017,0l0.062,-0.016l0.219,-0.033l0.067,-0.015l0.247,-0.04l0.039,0l0.491,-0.104c0.475,0.175 0.97,0.264 1.503,0.264l-3.788,0.016l-0.002,-0.018l0,0Z" style="fill:#5f5f5f;fill-rule:nonzero;"/><path d="M81.511,78.54l0,-0.016c-1.082,1.035 -2.162,1.983 -3.24,2.84c-0.563,0.447 -1.125,0.871 -1.693,1.271c0.476,0.568 0.959,1.1 1.468,1.585c0.772,0.749 1.597,1.38 2.498,1.867c0.205,-0.101 0.41,-0.211 0.609,-0.327c0.918,-0.536 1.741,-1.26 2.52,-2.209c-0.806,-1.376 -1.513,-3.082 -2.157,-5.012" style="fill:#5d5d5d;fill-rule:nonzero;"/><path d="M113.685,39.594l-6.121,0l-0.97,0.047l-0.451,0.966c-5.068,10.793 -10.388,20.145 -15.791,27.58c-2.54,7.818 -4.404,12.563 -6.69,15.353c0.977,1.668 2.114,2.84 3.466,3.337l0.106,-0.023l0.022,0l0.075,-0.016l0.17,-0.042l0.101,-0.029l0.151,-0.039l0.094,-0.027l0.226,-0.068l0.112,-0.038l0.126,-0.046l0.13,-0.041l0.106,-0.04l0.264,-0.093l0.073,-0.027l0.162,-0.063l0.068,-0.025l0.568,-0.243l0.02,0c0.271,-0.119 0.547,-0.254 0.821,-0.394c8.785,-4.908 13.22,-21.396 27.008,-46.026l-3.851,0l0.005,-0.003l0,0Z" style="fill:url(#_Linear15);fill-rule:nonzero;"/><path d="M37.433,40.677l0.063,0.016l0.16,0.017l0.054,0l0.292,0.038l0.049,0.016l0.246,0.041l0.062,0.015l0.567,0.126l0.052,0.016l0.228,0.064l0.063,0.019l0.271,0.077l0.021,0.016l0.237,0.081l0.09,0.029l0.17,0.069l0.096,0.034l0.226,0.094l0.11,0.047l0.136,0.059l0.12,0.057l0.119,0.062c0.979,0.48 1.879,1.121 2.713,1.898c0.308,-0.323 0.628,-0.613 0.962,-0.874c-1.823,-1.293 -3.89,-2.03 -6.271,-2.03c-0.276,0 -0.552,0.016 -0.832,0.037" style="fill:#c0c0c0;fill-rule:nonzero;"/><path d="M43.574,43.544c0.511,0.475 1,1.005 1.462,1.577c0.448,-0.311 0.892,-0.611 1.337,-0.891c-0.583,-0.583 -1.198,-1.108 -1.839,-1.56c-0.333,0.26 -0.652,0.552 -0.96,0.874" style="fill:#b8b8b8;fill-rule:nonzero;"/><path d="M37.168,40.742l0.833,-0.036c2.382,0 4.447,0.737 6.269,2.03c1.924,-1.52 4.251,-2.05 7.482,-2.05l-15.644,0l1.06,0.056" style="fill:url(#_Linear16);fill-rule:nonzero;"/><path d="M51.752,40.686c-3.231,0 -5.553,0.53 -7.482,2.05c0.636,0.449 1.252,0.974 1.838,1.56c2.68,-1.702 5.331,-2.832 7.945,-3.322c1,-0.187 1.994,-0.283 2.974,-0.283l-5.275,0l0,-0.005Z" style="fill:url(#_Linear17);fill-rule:nonzero;"/><path d="M90.359,68.202c1.391,-4.284 2.98,-9.485 4.954,-15.794c1.777,-5.684 4.925,-9.934 10.835,-11.788l0.456,-0.966c-9.636,0.577 -14.14,5.479 -16.405,12.738c-3.964,12.673 -6.365,20.888 -8.677,26.123c2.952,-2.823 5.904,-6.288 8.837,-10.313" style="fill:url(#_Linear18);fill-rule:nonzero;"/><defs><linearGradient id="_Linear1" x1="0" y1="0" x2="1" y2="0" gradientUnits="userSpaceOnUse" gradientTransform="matrix(3.58493e-15,58.5464,-58.5464,3.58493e-15,56.497,40.3038)"><stop offset="0" style="stop-color:#8b8b8b;stop-opacity:1"/><stop offset="0.35" style="stop-color:#c0c0c0;stop-opacity:1"/><stop offset="0.35" style="stop-color:#c0c0c0;stop-opacity:1"/><stop offset="0.85" style="stop-color:#757575;stop-opacity:1"/><stop offset="0.85" style="stop-color:#757575;stop-opacity:1"/><stop offset="1" style="stop-color:#757575;stop-opacity:1"/></linearGradient><linearGradient id="_Linear2" x1="0" y1="0" x2="1" y2="0" gradientUnits="userSpaceOnUse" gradientTransform="matrix(3.66689e-15,59.8849,-59.8849,3.66689e-15,58.7013,38.8955)"><stop offset="0" style="stop-color:#707070;stop-opacity:1"/><stop offset="0.36" style="stop-color:#a2a2a2;stop-opacity:1"/><stop offset="0.36" style="stop-color:#a2a2a2;stop-opacity:1"/><stop offset="0.85" style="stop-color:#a0a0a0;stop-opacity:1"/><stop offset="0.85" style="stop-color:#a0a0a0;stop-opacity:1"/><stop offset="1" style="stop-color:#a0a0a0;stop-opacity:1"/></linearGradient><linearGradient id="_Linear3" x1="0" y1="0" x2="1" y2="0" gradientUnits="userSpaceOnUse" gradientTransform="matrix(2.91769e-15,-47.6494,47.6494,2.91769e-15,70.5517,85.7385)"><stop offset="0" style="stop-color:#616161;stop-opacity:1"/><stop offset="0.5" style="stop-color:#afafaf;stop-opacity:1"/><stop offset="1" style="stop-color:#afafaf;stop-opacity:0.419608"/></linearGradient><linearGradient id="_Linear4" x1="0" y1="0" x2="1" y2="0" gradientUnits="userSpaceOnUse" gradientTransform="matrix(3.81693e-15,62.3352,-62.3352,3.81693e-15,67.3314,32.6391)"><stop offset="0" style="stop-color:#666;stop-opacity:1"/><stop offset="0.4" style="stop-color:#a2a2a2;stop-opacity:1"/><stop offset="0.4" style="stop-color:#a2a2a2;stop-opacity:1"/><stop offset="0.85" style="stop-color:#8e8e8e;stop-opacity:1"/><stop offset="0.85" style="stop-color:#8e8e8e;stop-opacity:1"/><stop offset="1" style="stop-color:#8e8e8e;stop-opacity:1"/></linearGradient><linearGradient id="_Linear5" x1="0" y1="0" x2="1" y2="0" gradientUnits="userSpaceOnUse" gradientTransform="matrix(4.05881e-15,66.2854,-66.2854,4.05881e-15,62.7388,33.1258)"><stop offset="0" style="stop-color:#414141;stop-opacity:1"/><stop offset="0.39" style="stop-color:#7f7f7f;stop-opacity:1"/><stop offset="0.39" style="stop-color:#7f7f7f;stop-opacity:1"/><stop offset="0.78" style="stop-color:#505050;stop-opacity:1"/><stop offset="0.78" style="stop-color:#505050;stop-opacity:1"/><stop offset="1" style="stop-color:#505050;stop-opacity:1"/></linearGradient><linearGradient id="_Linear6" x1="0" y1="0" x2="1" y2="0" gradientUnits="userSpaceOnUse" gradientTransform="matrix(9.35605,0,0,9.35605,35.4283,52.696)"><stop offset="0" style="stop-color:#afafaf;stop-opacity:0.694118"/><stop offset="1" style="stop-color:#9e9e9e;stop-opacity:1"/></linearGradient><linearGradient id="_Linear7" x1="0" y1="0" x2="1" y2="0" gradientUnits="userSpaceOnUse" gradientTransform="matrix(2.84222e-15,-46.417,46.417,2.84222e-15,106.279,84.4998)"><stop offset="0" style="stop-color:#666;stop-opacity:1"/><stop offset="0.6" style="stop-color:#bcbcbc;stop-opacity:0.545098"/><stop offset="1" style="stop-color:#bcbcbc;stop-opacity:0.231373"/></linearGradient><linearGradient id="_Linear8" x1="0" y1="0" x2="1" y2="0" gradientUnits="userSpaceOnUse" gradientTransform="matrix(34.7066,0,0,34.7066,2.22378,63.7965)"><stop offset="0" style="stop-color:#969696;stop-opacity:0.243137"/><stop offset="1" style="stop-color:#969696;stop-opacity:1"/></linearGradient><linearGradient id="_Linear9" x1="0" y1="0" x2="1" y2="0" gradientUnits="userSpaceOnUse" gradientTransform="matrix(2.91021e-15,-47.5274,47.5274,2.91021e-15,22.1325,85.6973)"><stop offset="0" style="stop-color:#878787;stop-opacity:1"/><stop offset="1" style="stop-color:#9c9c9c;stop-opacity:1"/></linearGradient><linearGradient id="_Linear10" x1="0" y1="0" x2="1" y2="0" gradientUnits="userSpaceOnUse" gradientTransform="matrix(2.83615e-15,-46.3179,46.3179,2.83615e-15,24.6944,85.9502)"><stop offset="0" style="stop-color:#969696;stop-opacity:1"/><stop offset="1" style="stop-color:#969696;stop-opacity:0.545098"/></linearGradient><linearGradient id="_Linear11" x1="0" y1="0" x2="1" y2="0" gradientUnits="userSpaceOnUse" gradientTransform="matrix(2.39658e-15,-39.1391,39.1391,2.39658e-15,27.5985,88.3719)"><stop offset="0" style="stop-color:#585858;stop-opacity:1"/><stop offset="0.5" style="stop-color:#969696;stop-opacity:1"/><stop offset="0.5" style="stop-color:#969696;stop-opacity:1"/><stop offset="0.92" style="stop-color:#bbb;stop-opacity:1"/><stop offset="1" style="stop-color:#bbb;stop-opacity:1"/></linearGradient><linearGradient id="_Linear12" x1="0" y1="0" x2="1" y2="0" gradientUnits="userSpaceOnUse" gradientTransform="matrix(-7.46382,-42.3294,42.3294,-7.46382,28.8516,85.7712)"><stop offset="0" style="stop-color:#4f4f4f;stop-opacity:1"/><stop offset="1" style="stop-color:#7b7b7b;stop-opacity:1"/></linearGradient><linearGradient id="_Linear13" x1="0" y1="0" x2="1" y2="0" gradientUnits="userSpaceOnUse" gradientTransform="matrix(1.35453e-15,-22.1212,22.1212,1.35453e-15,98.0131,61.7693)"><stop offset="0" style="stop-color:#969696;stop-opacity:1"/><stop offset="0.87" style="stop-color:#8b8b8b;stop-opacity:1"/><stop offset="1" style="stop-color:#8b8b8b;stop-opacity:1"/></linearGradient><linearGradient id="_Linear14" x1="0" y1="0" x2="1" y2="0" gradientUnits="userSpaceOnUse" gradientTransform="matrix(-8.99457,51.01,-51.01,-8.99457,108.84,37.8764)"><stop offset="0" style="stop-color:#9c9c9c;stop-opacity:0.32549"/><stop offset="0.96" style="stop-color:#808080;stop-opacity:1"/><stop offset="0.96" style="stop-color:#808080;stop-opacity:1"/><stop offset="1" style="stop-color:#808080;stop-opacity:1"/></linearGradient><linearGradient id="_Linear15" x1="0" y1="0" x2="1" y2="0" gradientUnits="userSpaceOnUse" gradientTransform="matrix(2.95503e-15,48.2594,-48.2594,2.95503e-15,100.306,39.5106)"><stop offset="0" style="stop-color:#848484;stop-opacity:1"/><stop offset="0.5" style="stop-color:#7f7f7f;stop-opacity:1"/><stop offset="1" style="stop-color:#4a4a4a;stop-opacity:1"/></linearGradient><linearGradient id="_Linear16" x1="0" y1="0" x2="1" y2="0" gradientUnits="userSpaceOnUse" gradientTransform="matrix(56.1144,23.2742,23.2742,-56.1144,36.4864,35.3233)"><stop offset="0" style="stop-color:#ccc;stop-opacity:1"/><stop offset="0.7" style="stop-color:#b3b3b3;stop-opacity:1"/><stop offset="1" style="stop-color:#b3b3b3;stop-opacity:1"/></linearGradient><linearGradient id="_Linear17" x1="0" y1="0" x2="1" y2="0" gradientUnits="userSpaceOnUse" gradientTransform="matrix(44.3198,-20.0908,-20.0908,-44.3198,46.2706,48.0448)"><stop offset="0" style="stop-color:#c0c0c0;stop-opacity:1"/><stop offset="1" style="stop-color:#aaa;stop-opacity:1"/></linearGradient><linearGradient id="_Linear18" x1="0" y1="0" x2="1" y2="0" gradientUnits="userSpaceOnUse" gradientTransform="matrix(2.89032e-15,47.2025,-47.2025,2.89032e-15,93.7216,42.1346)"><stop offset="0" style="stop-color:#9b9b9b;stop-opacity:1"/><stop offset="1" style="stop-color:#9f9f9f;stop-opacity:0"/></linearGradient></defs></svg>