<?xml version="1.0" encoding="UTF-8" standalone="no"?><!DOCTYPE svg PUBLIC "-//W3C//DTD SVG 1.1//EN" "http://www.w3.org/Graphics/SVG/1.1/DTD/svg11.dtd"><svg width="100%" height="100%" viewBox="0 0 128 128" version="1.1" xmlns="http://www.w3.org/2000/svg" xmlns:xlink="http://www.w3.org/1999/xlink" xml:space="preserve" style="fill-rule:evenodd;clip-rule:evenodd;stroke-linejoin:round;stroke-miterlimit:1.41421;"><g><path d="M64,5.103c-33.347,0 -60.388,27.035 -60.388,60.388c0,26.682 17.303,49.317 41.297,57.303c3.017,0.56 4.125,-1.31 4.125,-2.905c0,-1.44 -0.056,-6.197 -0.082,-11.243c-16.8,3.653 -20.345,-7.125 -20.345,-7.125c-2.747,-6.98 -6.705,-8.836 -6.705,-8.836c-5.48,-3.748 0.413,-3.67 0.413,-3.67c6.063,0.425 9.257,6.223 9.257,6.223c5.386,9.23 14.127,6.562 17.573,5.02c0.542,-3.903 2.107,-6.568 3.834,-8.076c-13.413,-1.525 -27.514,-6.704 -27.514,-29.843c0,-6.593 2.36,-11.98 6.223,-16.21c-0.628,-1.52 -2.695,-7.662 0.584,-15.98c0,0 5.07,-1.623 16.61,6.19c4.818,-1.339 9.985,-2.012 15.118,-2.035c5.13,0.023 10.3,0.694 15.127,2.033c11.526,-7.813 16.59,-6.19 16.59,-6.19c3.287,8.317 1.22,14.46 0.593,15.98c3.872,4.23 6.215,9.617 6.215,16.21c0,23.194 -14.127,28.3 -27.574,29.796c2.167,1.874 4.097,5.55 4.097,11.183c0,8.08 -0.07,14.583 -0.07,16.572c0,1.607 1.088,3.49 4.148,2.897c23.98,-7.994 41.263,-30.622 41.263,-57.294c-0.001,-33.351 -27.039,-60.387 -60.389,-60.387l0,-0.001Z" style="fill:#161616;"/><path d="M26.484,91.806c-0.133,0.3 -0.605,0.39 -1.035,0.185c-0.44,-0.196 -0.685,-0.605 -0.543,-0.906c0.13,-0.31 0.603,-0.395 1.04,-0.188c0.44,0.197 0.69,0.61 0.537,0.91l0.001,-0.001Zm2.446,2.729c-0.287,0.267 -0.85,0.143 -1.232,-0.28c-0.396,-0.42 -0.47,-0.983 -0.177,-1.254c0.298,-0.266 0.844,-0.14 1.24,0.28c0.394,0.426 0.472,0.984 0.17,1.255l-0.001,-0.001Zm2.382,3.477c-0.37,0.258 -0.976,0.017 -1.35,-0.52c-0.37,-0.538 -0.37,-1.183 0.01,-1.44c0.373,-0.258 0.97,-0.025 1.35,0.507c0.368,0.545 0.368,1.19 -0.01,1.452l0,0.001Zm3.261,3.361c-0.33,0.365 -1.036,0.267 -1.552,-0.23c-0.527,-0.487 -0.674,-1.18 -0.343,-1.544c0.336,-0.366 1.045,-0.264 1.564,0.23c0.527,0.486 0.686,1.18 0.333,1.543l-0.002,0.001Zm4.5,1.951c-0.147,0.473 -0.825,0.688 -1.51,0.486c-0.683,-0.207 -1.13,-0.76 -0.99,-1.238c0.14,-0.477 0.823,-0.7 1.512,-0.485c0.683,0.206 1.13,0.756 0.988,1.237Zm4.943,0.361c0.017,0.498 -0.563,0.91 -1.28,0.92c-0.723,0.017 -1.308,-0.387 -1.315,-0.877c0,-0.503 0.568,-0.91 1.29,-0.924c0.717,-0.013 1.306,0.387 1.306,0.88l-0.001,0.001Zm4.598,-0.782c0.086,0.485 -0.413,0.984 -1.126,1.117c-0.7,0.13 -1.35,-0.172 -1.44,-0.653c-0.086,-0.498 0.422,-0.997 1.122,-1.126c0.714,-0.123 1.354,0.17 1.444,0.663l0,-0.001Z" style="fill:#161616;fill-rule:nonzero;"/></g></svg>