<?xml version="1.0" encoding="UTF-8" standalone="no"?><!DOCTYPE svg PUBLIC "-//W3C//DTD SVG 1.1//EN" "http://www.w3.org/Graphics/SVG/1.1/DTD/svg11.dtd"><svg width="100%" height="100%" viewBox="0 0 128 128" version="1.1" xmlns="http://www.w3.org/2000/svg" xmlns:xlink="http://www.w3.org/1999/xlink" xml:space="preserve" style="fill-rule:evenodd;clip-rule:evenodd;stroke-linejoin:round;stroke-miterlimit:1.41421;"><path d="M126.615,72.31l-7.034,-21.647l-13.941,-42.903c-0.716,-2.206 -3.84,-2.206 -4.556,0l-13.94,42.903l-46.288,0l-13.94,-42.903c-0.717,-2.206 -3.84,-2.206 -4.557,0l-13.939,42.904l-7.035,21.646c-0.64,1.969 0.065,4.141 1.74,5.358l60.875,44.226l60.874,-44.227c1.674,-1.217 2.379,-3.388 1.74,-5.357" style="fill:#9b9b9b;fill-rule:nonzero;"/><path d="M64,121.894l23.144,-71.23l-46.288,0l23.144,71.229l0,0.001Z" style="fill:#7f7f7f;fill-rule:nonzero;"/><path d="M64,121.894l-23.144,-71.23l-32.436,0l55.58,71.229l0,0.001Z" style="fill:#9b9b9b;fill-rule:nonzero;"/><path d="M8.42,50.663l-7.036,21.647c-0.64,1.969 0.065,4.14 1.74,5.357l60.876,44.227l-55.58,-71.23l0,-0.001Z" style="fill:#b8b8b8;fill-rule:nonzero;"/><path d="M8.42,50.663l32.436,0l-13.94,-42.903c-0.717,-2.206 -3.84,-2.206 -4.557,0l-13.939,42.904l0,-0.001Z" style="fill:#7f7f7f;fill-rule:nonzero;"/><path d="M64,121.894l23.144,-71.23l32.437,0l-55.581,71.229l0,0.001Z" style="fill:#9b9b9b;fill-rule:nonzero;"/><path d="M119.58,50.663l7.035,21.647c0.64,1.969 -0.065,4.14 -1.74,5.357l-60.875,44.227l55.58,-71.23l0,-0.001Z" style="fill:#b8b8b8;fill-rule:nonzero;"/><path d="M119.58,50.663l-32.435,0l13.94,-42.902c0.717,-2.206 3.84,-2.206 4.557,0l13.94,42.903l-0.002,-0.001Z" style="fill:#7f7f7f;fill-rule:nonzero;"/></svg>