<?xml version="1.0" encoding="UTF-8" standalone="no"?><!DOCTYPE svg PUBLIC "-//W3C//DTD SVG 1.1//EN" "http://www.w3.org/Graphics/SVG/1.1/DTD/svg11.dtd"><svg width="100%" height="100%" viewBox="0 0 128 128" version="1.1" xmlns="http://www.w3.org/2000/svg" xmlns:xlink="http://www.w3.org/1999/xlink" xml:space="preserve" style="fill-rule:evenodd;clip-rule:evenodd;stroke-linejoin:round;stroke-miterlimit:1.41421;"><path d="M19.037,113.876l-10.005,-112.215l109.936,0l-10.016,112.198l-45.019,12.48l-44.896,-12.463Z" style="fill:#838383;fill-rule:nonzero;"/><path d="M64,116.8l36.378,-10.086l8.559,-95.878l-44.937,0l0,105.964Z" style="fill:#939393;fill-rule:nonzero;"/><path d="M64,52.455l-18.212,0l-1.258,-14.094l19.47,0l0,-13.762l-34.511,0l0.33,3.692l3.382,37.927l30.799,0l0,-13.763Zm0,35.743l-0.061,0.017l-15.327,-4.14l-0.979,-10.975l-13.817,0l1.928,21.609l28.193,7.826l0.063,-0.017l0,-14.32Z" style="fill:#ebebeb;fill-rule:nonzero;"/><path d="M63.952,52.455l0,13.763l16.947,0l-1.597,17.849l-15.35,4.143l0,14.319l28.215,-7.82l0.207,-2.325l3.234,-36.233l0.335,-3.696l-3.708,0l-28.283,0Zm0,-27.856l0,13.762l33.244,0l0.276,-3.092l0.628,-6.978l0.329,-3.692l-34.477,0Z" style="fill:#fff;fill-rule:nonzero;"/></svg>