<?xml version="1.0" encoding="UTF-8" standalone="no"?><!DOCTYPE svg PUBLIC "-//W3C//DTD SVG 1.1//EN" "http://www.w3.org/Graphics/SVG/1.1/DTD/svg11.dtd"><svg width="100%" height="100%" viewBox="0 0 128 128" version="1.1" xmlns="http://www.w3.org/2000/svg" xmlns:xlink="http://www.w3.org/1999/xlink" xml:space="preserve" style="fill-rule:evenodd;clip-rule:evenodd;stroke-linejoin:round;stroke-miterlimit:1.41421;"><path d="M1.408,1.408l125.184,0l0,125.185l-125.184,0l0,-125.185Z" style="fill:#dbdbdb;fill-rule:nonzero;"/><path d="M116.347,96.736c-0.917,-5.711 -4.641,-10.508 -15.672,-14.981c-3.832,-1.761 -8.104,-3.022 -9.377,-5.926c-0.452,-1.69 -0.512,-2.642 -0.226,-3.665c0.821,-3.32 4.784,-4.355 7.925,-3.403c2.023,0.678 3.938,2.237 5.093,4.724c5.402,-3.498 5.391,-3.475 9.163,-5.879c-1.381,-2.141 -2.118,-3.129 -3.022,-4.045c-3.249,-3.629 -7.676,-5.498 -14.756,-5.355l-3.688,0.477c-3.534,0.893 -6.902,2.748 -8.877,5.235c-5.926,6.724 -4.236,18.492 2.975,23.335c7.104,5.332 17.54,6.545 18.873,11.531c1.297,6.104 -4.486,8.08 -10.234,7.378c-4.236,-0.881 -6.592,-3.034 -9.139,-6.949c-4.688,2.713 -4.688,2.713 -9.508,5.485c1.143,2.499 2.344,3.63 4.26,5.795c9.068,9.198 31.76,8.746 35.83,-5.176c0.165,-0.478 1.261,-3.666 0.38,-8.581l0,0Zm-46.885,-37.793l-11.709,0l-0.048,30.272c0,6.438 0.333,12.34 -0.714,14.149c-1.713,3.558 -6.152,3.117 -8.175,2.427c-2.059,-1.012 -3.106,-2.451 -4.319,-4.485c-0.333,-0.584 -0.583,-1.036 -0.667,-1.071l-9.52,5.83c1.583,3.249 3.915,6.069 6.902,7.901c4.462,2.678 10.459,3.499 16.731,2.059c4.082,-1.189 7.604,-3.652 9.448,-7.401c2.666,-4.915 2.094,-10.864 2.07,-17.444c0.06,-10.735 0.001,-21.468 0.001,-32.237Z" style="fill:#333;fill-rule:nonzero;"/></svg>