<?xml version="1.0" encoding="UTF-8" standalone="no"?><!DOCTYPE svg PUBLIC "-//W3C//DTD SVG 1.1//EN" "http://www.w3.org/Graphics/SVG/1.1/DTD/svg11.dtd"><svg width="100%" height="100%" viewBox="0 0 128 128" version="1.1" xmlns="http://www.w3.org/2000/svg" xmlns:xlink="http://www.w3.org/1999/xlink" xml:space="preserve" style="fill-rule:evenodd;clip-rule:evenodd;stroke-linejoin:round;stroke-miterlimit:1.41421;"><path d="M47.617,98.12c0,0 -4.767,2.774 3.397,3.71c9.892,1.13 14.947,0.968 25.845,-1.092c0,0 2.871,1.795 6.873,3.351c-24.439,10.47 -55.308,-0.607 -36.115,-5.969Zm-2.988,-13.665c0,0 -5.348,3.959 2.823,4.805c10.567,1.091 18.91,1.18 33.354,-1.6c0,0 1.993,2.025 5.132,3.131c-29.542,8.64 -62.446,0.68 -41.309,-6.336l0,0Z" style="fill:#6e6e6e;fill-rule:nonzero;"/><path d="M69.802,61.271c6.025,6.935 -1.58,13.17 -1.58,13.17c0,0 15.289,-7.891 8.269,-17.777c-6.559,-9.215 -11.587,-13.792 15.635,-29.58c0,0.001 -42.731,10.67 -22.324,34.187l0,0Z" style="fill:#7d7d7d;fill-rule:nonzero;"/><path d="M102.123,108.229c0,0 3.529,2.91 -3.888,5.159c-14.102,4.272 -58.706,5.56 -71.094,0.171c-4.451,-1.938 3.899,-4.625 6.526,-5.192c2.739,-0.593 4.303,-0.485 4.303,-0.485c-4.953,-3.487 -32.013,6.85 -13.743,9.815c49.821,8.076 90.817,-3.637 77.896,-9.468l0,0Zm-52.211,-37.935c0,0 -22.686,5.389 -8.033,7.348c6.188,0.828 18.518,0.638 30.011,-0.326c9.39,-0.789 18.813,-2.474 18.813,-2.474c0,0 -3.308,1.419 -5.704,3.053c-23.042,6.061 -67.544,3.238 -54.731,-2.958c10.832,-5.239 19.644,-4.643 19.644,-4.643l0,0Zm40.697,22.747c23.421,-12.167 12.591,-23.86 5.032,-22.285c-1.848,0.385 -2.677,0.72 -2.677,0.72c0,0 0.688,-1.079 2,-1.543c14.953,-5.255 26.451,15.503 -4.823,23.725c0,-0.002 0.359,-0.327 0.468,-0.617l0,0Z" style="fill:#6e6e6e;fill-rule:nonzero;"/><path d="M76.491,1.587c0,0 12.968,12.976 -12.303,32.923c-20.266,16.006 -4.621,25.13 -0.007,35.559c-11.831,-10.673 -20.509,-20.07 -14.688,-28.815c8.548,-12.834 32.229,-19.059 26.998,-39.667l0,0Z" style="fill:#7d7d7d;fill-rule:nonzero;"/><path d="M52.214,126.021c22.476,1.437 57,-0.8 57.817,-11.436c0,0 -1.571,4.032 -18.577,7.231c-19.186,3.612 -42.854,3.191 -56.887,0.874c0,0.001 2.875,2.381 17.647,3.331l0,0Z" style="fill:#6e6e6e;fill-rule:nonzero;"/></svg>