<?xml version="1.0" encoding="iso-8859-1"?>
<!-- Generator: Adobe Illustrator 16.0.0, SVG Export Plug-In . SVG Version: 6.00 Build 0)  -->
<!DOCTYPE svg PUBLIC "-//W3C//DTD SVG 1.1//EN" "http://www.w3.org/Graphics/SVG/1.1/DTD/svg11.dtd">
<svg version="1.1" id="Capa_1" xmlns="http://www.w3.org/2000/svg" xmlns:xlink="http://www.w3.org/1999/xlink" x="0px" y="0px"
	 width="612px" height="612px" viewBox="0 0 612 612" style="enable-background:new 0 0 612 612;" xml:space="preserve">
<g>
	<g id="linkedin">
		<g>
			<path d="M133.572,172.485H17.639c-7.929,0-14.364,6.435-14.364,14.364v405.271c0,7.928,6.435,14.363,14.364,14.363h115.948
				c7.929,0,14.364-6.436,14.364-14.363V186.85C147.937,178.906,141.516,172.485,133.572,172.485z M119.208,577.756H31.989V201.214
				h87.219V577.756z M456.824,167.559c-56.294,0-93.123,24.29-114.512,45.419l-2.643-27.507
				c-0.719-7.383-6.924-12.985-14.293-12.985h-0.287l-105.691,2.025c-3.878,0.072-7.556,1.709-10.199,4.539
				c-2.657,2.83-4.051,6.607-3.878,10.472c1.322,29.59,1.279,64.179,1.221,104.226l-0.015,300.413
				c0,7.93,6.436,14.363,14.364,14.363H336.84c7.929,0,14.364-6.434,14.364-14.363V359.881c0-11.965,1.034-20.613,3.088-25.77
				c7.226-18.4,31.07-37.419,58.448-37.419c35.465,0,56.623,26.976,56.623,72.181V594.16c0,7.93,6.436,14.363,14.364,14.363h113.908
				c7.929,0,14.364-6.434,14.364-14.363V354.164C612,237.311,553.983,167.559,456.824,167.559z M583.271,579.797h-85.18V368.873
				c0-61.307-33.512-100.909-85.352-100.909c-41.139,0-74.593,28.671-85.15,55.575c-3.491,8.719-5.114,20.283-5.114,36.342v219.916
				h-87.219l0.015-286.006c0.043-34.015,0.086-64.122-0.704-90.839l77.782-1.494l4.468,46.325
				c0.718,7.369,6.909,12.985,14.307,12.985h2.441c4.956,0,9.553-2.542,12.182-6.751c8.475-13.545,41.526-57.729,111.092-57.729
				c80.368,0,126.448,57.542,126.448,157.877v225.633H583.271z M80.468,3.477C33.842,3.477,0,35.609,0,79.894
				c0,44.256,33.167,76.374,78.859,76.374c47.1,0,81.287-32.118,81.287-76.719C159.098,34.762,126.333,3.477,80.468,3.477z
				 M78.859,127.54c-29.519,0-50.131-19.593-50.131-47.646c0-28.527,20.799-47.689,51.74-47.689
				c30.265,0,50.274,18.846,50.95,47.689C131.418,108.393,110.288,127.54,78.859,127.54z"/>
		</g>
	</g>
</g>
<g>
</g>
<g>
</g>
<g>
</g>
<g>
</g>
<g>
</g>
<g>
</g>
<g>
</g>
<g>
</g>
<g>
</g>
<g>
</g>
<g>
</g>
<g>
</g>
<g>
</g>
<g>
</g>
<g>
</g>
</svg>
