<svg width="980" height="180" viewBox="0 0 980 180" fill="none" xmlns="http://www.w3.org/2000/svg">
<path d="M66.5 140C63.5 140 61 137.5 61 134.5V45.5C61 42.5 63.5 40 66.5 40H155.5C158.5 40 161 42.5 161 45.5V134.5C161 137.5 158.5 140 155.5 140H130V101.3H143L144.9 86.2H130V76.6C130 72.2 131.2 69.3 137.5 69.3H145.5V55.8C144.1 55.6 139.4 55.2 133.9 55.2C122.4 55.2 114.5 62.2 114.5 75.1V86.2H101.5V101.3H114.5V140H130.1" fill="#3C5A99"/>
<g clip-path="url(#clip0)">
<path d="M337.088 128.735C296.608 148 271.486 131.882 255.404 122.092C254.409 121.475 252.718 122.236 254.185 123.921C259.543 130.418 277.101 146.075 300.019 146.075C322.953 146.075 336.596 133.561 338.303 131.378C339.998 129.214 338.801 128.02 337.087 128.735H337.088ZM348.456 122.457C347.369 121.041 341.846 120.777 338.371 121.204C334.889 121.619 329.664 123.746 330.118 125.024C330.352 125.502 330.827 125.288 333.219 125.073C335.617 124.833 342.335 123.986 343.734 125.815C345.141 127.658 341.592 136.435 340.944 137.851C340.317 139.266 341.183 139.631 342.359 138.689C343.519 137.746 345.62 135.305 347.029 131.852C348.429 128.379 349.282 123.534 348.456 122.457H348.456Z" fill="#FF9900"/>
<path fill-rule="evenodd" clip-rule="evenodd" d="M309.87 89.4249C309.87 94.4797 309.997 98.6952 307.442 103.184C305.38 106.834 302.114 109.079 298.464 109.079C293.482 109.079 290.58 105.283 290.58 99.6808C290.58 88.6217 300.489 86.6146 309.87 86.6146V89.4249ZM322.954 121.05C322.096 121.816 320.855 121.871 319.888 121.36C315.581 117.784 314.815 116.123 312.443 112.71C305.326 119.974 300.289 122.145 291.055 122.145C280.142 122.145 271.638 115.411 271.638 101.925C271.638 91.3959 277.35 84.2239 285.47 80.7204C292.515 77.6177 302.351 77.0704 309.87 76.213V74.5339C309.87 71.4497 310.106 67.8 308.3 65.1359C306.712 62.7452 303.683 61.7597 301.018 61.7597C296.073 61.7597 291.657 64.2962 290.58 69.5518C290.361 70.72 289.504 71.8697 288.336 71.9244L275.744 70.5742C274.686 70.3365 273.518 69.4791 273.81 67.8547C276.711 52.599 290.489 48 302.825 48C309.139 48 317.387 49.679 322.37 54.4604C328.684 60.3545 328.081 68.2197 328.081 76.7784V96.9981C328.081 103.075 330.6 105.739 332.972 109.024C333.811 110.192 333.994 111.598 332.935 112.473C330.289 114.681 325.581 118.787 322.99 121.087L322.953 121.05" fill="black"/>
<path d="M337.088 128.735C296.608 148 271.486 131.882 255.404 122.092C254.409 121.475 252.718 122.236 254.185 123.921C259.543 130.418 277.101 146.075 300.019 146.075C322.953 146.075 336.596 133.561 338.303 131.378C339.998 129.214 338.801 128.02 337.087 128.735H337.088ZM348.456 122.457C347.369 121.041 341.846 120.777 338.371 121.204C334.889 121.619 329.664 123.746 330.118 125.024C330.352 125.502 330.827 125.288 333.219 125.073C335.617 124.833 342.335 123.986 343.734 125.815C345.141 127.658 341.592 136.435 340.944 137.851C340.317 139.266 341.183 139.631 342.359 138.689C343.519 137.746 345.62 135.305 347.029 131.852C348.429 128.379 349.282 123.534 348.456 122.457H348.456Z" fill="#FF9900"/>
<path fill-rule="evenodd" clip-rule="evenodd" d="M309.87 89.4249C309.87 94.4797 309.997 98.6952 307.442 103.184C305.38 106.834 302.114 109.079 298.464 109.079C293.482 109.079 290.58 105.283 290.58 99.6808C290.58 88.6217 300.489 86.6146 309.87 86.6146V89.4249ZM322.954 121.05C322.096 121.816 320.855 121.871 319.888 121.36C315.581 117.784 314.815 116.123 312.443 112.71C305.326 119.974 300.289 122.145 291.055 122.145C280.142 122.145 271.638 115.411 271.638 101.925C271.638 91.3959 277.35 84.2239 285.47 80.7204C292.515 77.6177 302.351 77.0704 309.87 76.213V74.5339C309.87 71.4497 310.106 67.8 308.3 65.1359C306.712 62.7452 303.683 61.7597 301.018 61.7597C296.073 61.7597 291.657 64.2962 290.58 69.5518C290.361 70.72 289.504 71.8697 288.336 71.9244L275.744 70.5742C274.686 70.3365 273.518 69.4791 273.81 67.8547C276.711 52.599 290.489 48 302.825 48C309.139 48 317.387 49.679 322.37 54.4604C328.684 60.3545 328.081 68.2197 328.081 76.7784V96.9981C328.081 103.075 330.6 105.739 332.972 109.024C333.811 110.192 333.994 111.598 332.935 112.473C330.289 114.681 325.581 118.787 322.99 121.087L322.953 121.05" fill="black"/>
</g>
<g clip-path="url(#clip1)">
<path fill-rule="evenodd" clip-rule="evenodd" d="M532.049 135.009C529.869 138.6 527.688 141.293 525.059 143.793C522.11 146.422 521.276 148.73 514.479 149.629C509.67 150.527 505.502 148.73 503.899 148.026C499.09 145.781 496.588 145.076 493.704 145.076C490.882 145.076 488.51 145.782 483.765 147.962C482.29 148.73 478.314 150.462 473.441 149.565C468.439 148.667 465.874 146.743 464.015 145.14C460.167 141.742 457.282 138.536 454.653 134.817L532.049 135.009V135.009Z" fill="#1E71B8"/>
<path fill-rule="evenodd" clip-rule="evenodd" d="M443.817 75.1826C446.061 70.1169 449.011 66.7184 451.961 64.3459C459.463 58.1901 471.71 57.8054 477.353 59.2802C481.97 60.4344 485.24 63.2558 490.434 63.2558C495.885 63.2558 499.026 60.4985 503.323 59.2802C508.966 57.8695 521.277 58.3184 529.292 64.4741C531.665 66.2696 533.844 68.7062 535.063 70.0528C532.178 72.1688 530.446 73.7078 529.035 75.1826H443.817V75.1826Z" fill="#6FB353"/>
<path fill-rule="evenodd" clip-rule="evenodd" d="M529.036 75.1826C527.689 76.6574 526.728 78.0681 525.637 80.0559C524.356 82.3643 522.816 85.5064 522.431 90.2514H440.034C440.098 89.482 440.162 88.6484 440.29 87.8148C441.06 82.7491 442.278 78.5811 443.817 75.1826H529.036Z" fill="#FFF22D"/>
<path fill-rule="evenodd" clip-rule="evenodd" d="M522.431 90.2514C522.367 91.7041 522.367 93.159 522.431 94.6117C522.624 98.1385 523.842 102.05 525.445 105.192L441.637 105C440.483 99.9339 439.841 94.74 440.034 90.2514H522.431V90.2514Z" fill="#E0922F"/>
<path fill-rule="evenodd" clip-rule="evenodd" d="M525.444 105.192C526.1 106.553 526.896 107.842 527.817 109.039C533.331 116.093 535.704 116.093 540 118.273C539.68 119.042 539.424 119.748 539.102 120.389L446.51 120.197C444.715 116.285 442.855 110.771 441.637 104.999L525.444 105.192V105.192Z" fill="#CC2229"/>
<path fill-rule="evenodd" clip-rule="evenodd" d="M539.102 120.389C536.41 126.673 534.229 131.289 532.049 135.009L454.654 134.817C452.089 131.033 449.78 126.864 447.151 121.671C446.959 121.222 446.703 120.709 446.51 120.197L539.102 120.389V120.389Z" fill="#5A308D"/>
<path fill-rule="evenodd" clip-rule="evenodd" d="M512.235 40.1076C511.786 43.3137 510.183 47.4175 507.618 50.0466C504.86 52.9962 500.565 56.2023 497.999 57.8054C496.588 58.7031 492.933 58.8313 489.92 59.152C489.536 56.4588 489.471 54.1504 490.305 51.6496C491.395 48.7 492.807 44.4679 495.05 41.5183C497.807 37.8633 500.949 35.3625 502.681 34.4648C504.99 33.3106 508.837 31.5793 512.171 31.0022C512.3 33.9518 512.749 37.2862 512.235 40.1076V40.1076Z" fill="#6FB353"/>
</g>
<g clip-path="url(#clip2)">
<path d="M698.013 46L697.977 67.9437L697.94 89.8875L696.237 84.7934C696.236 84.7916 696.234 84.7852 696.234 84.7834L694.032 133.636C696.197 140.113 697.356 143.571 697.369 143.585C697.386 143.603 698.619 143.682 700.11 143.76C704.625 143.998 710.221 144.507 714.466 145.066C715.449 145.195 716.295 145.262 716.346 145.213C716.397 145.165 716.424 122.822 716.407 95.5626L716.376 46H707.195H698.013V46Z" fill="#B1060F"/>
<path d="M665 46V95.6128C665 122.9 665.025 145.253 665.056 145.285C665.087 145.318 666.681 145.158 668.599 144.931C670.517 144.703 673.168 144.42 674.49 144.302C676.517 144.12 682.569 143.708 683.27 143.703C683.474 143.702 683.487 142.587 683.517 122.689L683.548 101.677L685.012 106.068C685.239 106.747 685.31 106.959 685.53 107.62L687.731 58.7797C687.265 57.3825 687.509 58.1159 686.975 56.5147C685.177 51.1267 683.651 46.5568 683.584 46.3592L683.462 46H674.231H665Z" fill="#B1060F"/>
<path d="M665 46L665 73.8491L683.511 125.89C683.513 124.697 683.515 124.053 683.517 122.689L683.548 101.677L685.012 106.068C693.164 130.515 697.544 143.623 697.57 143.65C697.587 143.669 698.82 143.747 700.31 143.826C704.826 144.063 710.422 144.572 714.667 145.131C715.649 145.261 716.495 145.327 716.546 145.278C716.581 145.245 716.604 134.29 716.61 118.835L698.186 62.6966L698.177 68.009L698.141 89.9528L696.437 84.8587C694.773 79.8812 693.662 76.5525 686.975 56.5147C685.177 51.1267 683.651 46.5568 683.584 46.3592L683.462 46H674.231H665Z" fill="url(#paint0_radial)"/>
<path d="M683.548 101.702V101.677L685.012 106.068C693.164 130.515 697.544 143.623 697.569 143.65C697.586 143.669 698.82 143.747 700.31 143.826C704.826 144.063 710.421 144.572 714.666 145.131C715.644 145.26 716.232 145.301 716.291 145.254L698.14 89.9426V89.9528L696.437 84.8587C694.773 79.8812 693.661 76.5525 686.974 56.5147C685.176 51.1267 683.65 46.5568 683.584 46.3592L683.462 46H674.231H665L683.548 101.702Z" fill="#E50914"/>
<path d="M697.977 67.9437L697.94 89.8875L696.237 84.7934C696.236 84.7916 696.234 84.7852 696.234 84.7834L694.032 133.636C696.197 140.113 697.356 143.571 697.369 143.585C697.386 143.603 698.619 143.682 700.11 143.76C704.625 143.998 710.221 144.507 714.466 145.066C715.449 145.195 716.295 145.262 716.346 145.213C716.397 145.165 716.424 122.822 716.407 95.5626L716.376 46H707.195H698.013L697.977 67.9437Z" fill="#B1060F"/>
<path d="M665 46V95.6128C665 122.9 665.025 145.253 665.056 145.285C665.087 145.318 666.681 145.158 668.599 144.931C670.517 144.703 673.168 144.42 674.49 144.302C676.517 144.12 682.569 143.708 683.27 143.703C683.474 143.702 683.487 142.587 683.517 122.689L683.548 101.677L685.012 106.068C685.239 106.747 685.31 106.959 685.53 107.62L687.731 58.7797C687.265 57.3825 687.509 58.1159 686.975 56.5147C685.177 51.1267 683.651 46.5568 683.584 46.3592L683.462 46H674.231H665Z" fill="#B1060F"/>
<path d="M665 73.8491L683.511 125.89C683.513 124.697 683.515 124.053 683.517 122.689L683.548 101.677L685.012 106.068C693.164 130.515 697.544 143.623 697.57 143.65C697.587 143.669 698.82 143.747 700.31 143.826C704.826 144.063 710.422 144.572 714.667 145.131C715.649 145.261 715.985 145.249 716.036 145.2C716.071 145.167 716.604 134.29 716.61 118.835L698.186 62.6966L698.177 68.009L698.141 89.9528L696.437 84.8587C694.773 79.8812 693.662 76.5525 686.975 56.5147C685.177 51.1267 683.651 46.5568 683.584 46.3592L683.462 46H674.231H665L665 73.8491Z" fill="url(#paint1_radial)"/>
<path d="M683.548 101.702V101.677L685.012 106.068C693.164 130.515 697.232 143.65 697.258 143.677C697.275 143.695 698.82 143.747 700.31 143.826C704.826 144.063 710.421 144.572 714.666 145.131C715.644 145.26 716.232 145.301 716.291 145.254L698.14 89.9426V89.9528L696.437 84.8587C694.773 79.8812 693.661 76.5525 686.974 56.5147C685.176 51.1267 683.65 46.5568 683.584 46.3592L683.462 46H674.231H665L683.548 101.702Z" fill="#E50914"/>
</g>
<path d="M913.668 97.9355C913.668 93.8385 913.336 90.8489 912.616 87.7485H865.833V106.24H893.294C892.741 110.835 889.751 117.756 883.107 122.406L883.014 123.026L897.806 134.485L898.831 134.587C908.242 125.895 913.668 113.105 913.668 97.9355" fill="#4285F4"/>
<path d="M865.833 146.657C879.287 146.657 890.581 142.227 898.831 134.587L883.107 122.407C878.899 125.341 873.252 127.389 865.833 127.389C852.657 127.389 841.473 118.697 837.486 106.683L836.902 106.733L821.521 118.636L821.32 119.195C829.514 135.473 846.345 146.657 865.833 146.657Z" fill="#34A853"/>
<path d="M837.486 106.683C836.434 103.583 835.826 100.261 835.826 96.8282C835.826 93.3954 836.434 90.0737 837.431 86.9733L837.403 86.313L821.829 74.2183L821.32 74.4607C817.943 81.2153 816.005 88.8004 816.005 96.8282C816.005 104.856 817.943 112.441 821.32 119.195L837.486 106.683" fill="#FBBC05"/>
<path d="M865.833 66.2668C875.19 66.2668 881.501 70.3084 885.1 73.6859L899.163 59.9554C890.526 51.9275 879.287 47 865.833 47C846.345 47 829.514 58.1836 821.32 74.4607L837.431 86.9733C841.473 74.9592 852.657 66.2668 865.833 66.2668" fill="#EB4335"/>
<defs>
<radialGradient id="paint0_radial" cx="0" cy="0" r="1" gradientUnits="userSpaceOnUse" gradientTransform="translate(704.872 66.572) rotate(-10.7988) scale(11.2531 12.3203)">
<stop/>
<stop offset="1" stop-opacity="0"/>
</radialGradient>
<radialGradient id="paint1_radial" cx="0" cy="0" r="1" gradientUnits="userSpaceOnUse" gradientTransform="translate(704.855 66.5729) rotate(-10.7988) scale(11.2531 12.3185)">
<stop/>
<stop offset="1" stop-opacity="0"/>
</radialGradient>
<clipPath id="clip0">
<rect width="100" height="100" fill="white" transform="translate(251 48)"/>
</clipPath>
<clipPath id="clip1">
<rect width="100" height="118.878" fill="white" transform="translate(440 31)"/>
</clipPath>
<clipPath id="clip2">
<rect width="51.6129" height="100" fill="white" transform="translate(665 46)"/>
</clipPath>
</defs>
</svg>
