<svg version="1.1" xmlns="http://www.w3.org/2000/svg" viewBox="0 0 1825.8336639404297 606.6667556762695" width="1825.8336639404297" height="606.6667556762695">
  <!-- svg-source:excalidraw -->
  
  <defs>
    <style>
      @font-face {
        font-family: "Virgil";
        src: url("https://excalidraw.com/FG_Virgil.woff2");
      }
      @font-face {
        font-family: "Cascadia";
        src: url("https://excalidraw.com/Cascadia.woff2");
      }
    </style>
  </defs>
  <g transform="translate(10 36.66667938232422) rotate(0 325.0001525878906 280.00003814697266)"><path d="M0.6381652075797319 0.8727350812405348 L649.7954117376357 1.5888472776859999 L649.247246356681 561.0978195052594 L1.1625533420592546 561.6124508362263" stroke="none" stroke-width="0" fill="#4a5568"></path><path d="M-0.03057389333844185 -0.6324053399264813 C250.67769870594304 2.3821865570472975, 501.80125374541007 2.5185524237083694, 649.6865839235485 0.3614334709942341 M0.22829666770994664 0.10844702683389187 C223.49665436391695 1.4557910174127406, 447.6426064357343 1.43894418179949, 650.3288655940444 -0.06005002297461033 M649.3917446367443 0.17422014549374581 C652.0572457075822 129.37221744040355, 652.0252816200959 258.3815070021591, 649.806033038348 559.8897302515804 M649.6693562213331 -0.03698016442358494 C651.493549733783 159.78341317826457, 651.7791215831292 319.85540526057673, 649.6246923748404 559.9945620771498 M649.8307555191219 559.6685996897519 C418.01636310060724 559.5710035180132, 187.44982148165303 558.7387338255922, -0.0872444398701191 559.8237193234265 M649.9866032902152 560.1963581319899 C400.66586024815916 558.7757529911073, 150.69431802702601 558.9399158295664, 0.30848645605146885 559.7497963543981 M0.05254762098193169 560.5262887127698 C-1.2555028077980928 344.0405944040598, -1.4110432502648287 129.56253025282047, 0.4039194576442242 -0.0038600556552410127 M-0.03874874673783779 559.9593225117773 C-0.798760763136966 443.10177523304196, -0.9705535683318207 326.3035171236182, -0.021912806853652003 -0.15309963263571263" stroke="#5557dd" stroke-width="2" fill="none"></path></g><g transform="translate(1165.8333587646484 10) rotate(0 325.0001525878906 121.66667938232422)"><path d="M-0.13863435201346874 -0.01880604214966297 L650.2138445694 -0.23993063159286976 L648.3087875563651 244.08635192923248 L-0.2669523637741804 245.27580702118576" stroke="none" stroke-width="0" fill="#2b373e"></path><path d="M-0.16954965665936472 -0.33147660419344904 C230.56962003121873 1.689689008386903, 462.5566405186574 0.8574193159659433, 649.9130607359111 -0.17635697051882746 M-0.01370188556611538 0.1962818380445242 C249.97565342207673 0.9995591219095161, 499.31420955064243 1.163721960368531, 650.3087916318327 -0.25027993954718114 M650.1090453779059 1.0889255063166903 C653.5030987721566 91.9012333730482, 653.1812288409144 186.8680606078409, 650.836161921445 243.32537090098648 M649.9201198795944 -0.0843344461173753 C650.6418963267053 51.019085083907974, 650.2863943265885 102.24519553950265, 649.9549595825487 243.01653975958357 M650.6358440868556 243.03213523700833 C434.69893192360297 243.53201850682592, 219.1643139192858 242.63960934907294, -0.0375040777027607 242.57402397468687 M649.8508196417242 243.51714429818094 C410.59543839069994 243.36040996980356, 170.92492690591098 243.5177406854598, -0.33169096074998383 243.47899240218104 M1.3325687254077387 241.96444504904645 C-2.8847705550536613 153.17297497340238, -0.7024708814641507 62.58548872020494, -1.1723364522676438 1.4827425431531538 M0.10053467450138591 243.99582810487348 C0.8008748024000716 171.32149195205776, 0.07678454733593851 99.22226768736066, -0.590467926373498 0.12703040494231893" stroke="#5557dd" stroke-width="2" fill="none"></path></g><g transform="translate(1381.6667938232422 68.66664123535156) rotate(0 116 59.03571428571422)"><text x="0" y="86.0714285714286" font-family="Virgil, Segoe UI Emoji" font-size="74.57142857142858px" fill="#fff" text-anchor="start" style="white-space: pre;" direction="ltr">[post]</text></g><g transform="translate(261.49977111816406 65.96428571428623) rotate(0 84 75.5)"><text x="0" y="109" font-family="Virgil, Segoe UI Emoji" font-size="95.2856568175477px" fill="#fff" text-anchor="start" style="white-space: pre;" direction="ltr">mdx</text></g><g transform="translate(43.33335876464844 260.00003814697266) rotate(0 293.33343505859375 60)"><path d="M-0.4043228905647993 -1.070250453427434 L588.6072327215225 -0.7567261476069689 L586.7389989811927 121.73239439539611 L0.4098601657897234 120.36006283573806" stroke="none" stroke-width="0" fill="#2b373e"></path><path d="M-0.4270063884556294 0.7746228583157063 C137.36500956013595 0.5049828618499419, 274.8254329489131 0.3445713847610137, 587.1798609010875 -0.6218703620135785 M0.08205490745604038 0.07243781052529812 C124.20097944608253 -1.3418373901679046, 248.84593586031934 -1.4954518039061555, 586.8805852595717 0.24363802634179593 M586.2102957349271 0.6979939062148333 C586.9460126131773 30.288613600656394, 585.5963270038367 63.14965146221221, 587.1866905670613 120.25293585844338 M587.25648610387 -0.6467068502679467 C588.0860142579302 45.56922684889287, 587.3664722016081 89.35556364711374, 586.9694114485756 119.9726074328646 M585.973739527911 119.49332503154874 C426.2004263603546 118.58984668499288, 266.3280889923588 119.49204964882192, 0.21856915876269342 120.15186263397337 M586.6939381901175 120.20294840298592 C457.2341871366293 119.31987849794952, 328.672074404064 119.88164875828353, -0.0724721010774374 120.09920889101923 M-0.7310500759631395 119.48178318329155 C1.704392122477293 79.86766698025167, -0.7823593743145466 42.51481367088854, 1.6036783438175917 -0.8426655810326338 M-0.032666697166860104 119.14586105849594 C0.2541165677830577 85.11604244541377, 0.9302253751084208 51.425853005610406, -0.5488043865188956 0.6634583463892341" stroke="#fff" stroke-width="2" fill="none"></path></g><g transform="translate(121.66664123535156 274.50003814697266) rotate(0 111.74265971936677 46.83332061767578)"><text x="0" y="68.66664123535158" font-family="Virgil, Segoe UI Emoji" font-size="59.15787867495889px" fill="#fff" text-anchor="start" style="white-space: pre;" direction="ltr">file1.mdx</text></g><g transform="translate(40.83320617675781 382.49996185302734) rotate(0 293.33343505859375 60)"><path d="M-1.991013614460826 -0.2181836385279894 L586.7244547326118 -0.33302885480225086 L587.0310199577361 121.87695312313735 L-1.5957930367439985 121.47432333044708" stroke="none" stroke-width="0" fill="#2b373e"></path><path d="M0.6929577581584454 0.16394406631588937 C233.06140896833247 0.15262633503081133, 465.69467875150457 -0.7167229777514763, 586.9661038868129 -0.48670641109347346 M0.3596321526914835 -0.1963574294000864 C219.65147610011277 1.7152727790465974, 439.3068885442381 2.0194903202644015, 586.8167894426733 -0.04423947371542454 M586.0016325693578 0.3183287102729082 C584.1729204386472 26.0649801325053, 586.1749556392431 53.7970765773207, 588.1327992063016 121.86306062527001 M586.831714884378 -0.7782429466024041 C585.4322981765494 34.38566579204053, 585.1639861693606 69.49342123325914, 586.9891506889835 120.80548116471618 M586.9885294191539 120.41616522148252 C447.67517630972935 119.0368101500484, 307.7607726326778 119.19653035630907, -0.04582109525799752 119.36991080120205 M586.4130063716323 120.143138301 C457.11486568419485 119.38229008257423, 328.1386186887741 119.5323366338018, -0.06931311450898647 119.78664953671395 M-0.36414790339767933 118.21655509062111 C-0.2634252555668354 91.2574537601322, 0.8982969872653485 63.958235928788774, -0.10938888974487782 -0.31109687499701977 M-0.16456262674182653 120.39744454529136 C-1.2191626401618123 90.109971861355, -1.1650049360468984 60.100025079213076, -0.3932333132252097 0.23473730590194464" stroke="#fff" stroke-width="2" fill="none"></path></g><g transform="translate(119.99992370605469 394.50003814697266) rotate(0 124.40646777236668 45.16667938232422)"><text x="0" y="64.33335876464845" font-family="Virgil, Segoe UI Emoji" font-size="57.0526476408306px" fill="#fff" text-anchor="start" style="white-space: pre;" direction="ltr">file2.mdx</text></g><g><g transform="translate(630.4643111456016 447.21432386125844) rotate(0 261.705582456789 -134.1431946878945)"><path d="M0.25842749252915387 -0.6465081252157688 C50.07296628132462 -0.922407718251149, 247.6045782563587 41.87290736461679, 299.6062877096236 -0.9526099957525731 C351.60799716288847 -43.77812735612194, 274.7903652109206 -210.76944608266157, 312.2686842121184 -257.59961228743197 C349.7470032133162 -304.4297784922024, 488.8999596911172 -277.81051880891124, 524.4762017168105 -281.933607224375 M-1.065036803232506 1.628471163706854 C48.49411356086842 0.9479231406220546, 246.3042007558079 40.83057827591586, 298.45154329354875 -2.7003183437418192 C350.59888583128964 -46.2312149633995, 274.1529245280754 -213.17864770283614, 311.8190184232127 -259.5569085542392 C349.48511231835 -305.9351694056423, 488.9785522443584 -277.17938130398903, 524.4481066643726 -280.9698834521603" stroke="#000" stroke-width="2" fill="none"></path></g><g transform="translate(630.4643111456016 447.21432386125844) rotate(0 261.705582456789 -134.1431946878945)"><path d="M494.74402969032366 -272.6527843556883 C507.2623511203754 -274.2846448774407, 517.5985182881722 -279.39059620614586, 524.0032269276213 -279.7596561750304 M495.2579682160153 -272.3262106950911 C502.0506068425525 -274.7637280804758, 509.93451312470734 -275.91846309763196, 524.2062447975856 -281.8840551311057" stroke="#000" stroke-width="2" fill="none"></path></g><g transform="translate(630.4643111456016 447.21432386125844) rotate(0 261.705582456789 -134.1431946878945)"><path d="M495.67345606184637 -293.15293481869116 C507.9773176153859 -287.404354022436, 517.9789644835543 -285.13186561085604, 524.0032269276213 -279.7596561750304 M496.187394587538 -292.82636115809396 C502.71739109663736 -290.26589940388635, 510.374475783128 -286.4176810060709, 524.2062447975856 -281.8840551311057" stroke="#000" stroke-width="2" fill="none"></path></g></g><g><g transform="translate(635.4643111456016 322.21432386125844) rotate(0 260.6755611957144 -108.33402965446635)"><path d="M0.2812830604612828 1.0146115265786648 C37.697048655897376 1.2134423616031806, 183.92294061953822 37.799953631808364, 224.51299947872758 1.6644788943231106 C265.10305833791693 -34.47099584316214, 194.24490311120945 -178.117169153442, 243.82163621559738 -215.79823689833285 C293.3983693199853 -253.47930464322368, 475.7768802004556 -223.01739104961356, 521.9733981050551 -224.42192757502198 M-1.0301820621360094 0.5016786326933653 C36.18333918209188 0.8634322962133836, 182.12136557584319 39.101019428170595, 223.30927874143237 3.2007689165044577 C264.49719190702154 -32.69948159516168, 196.25195931271028 -176.58726650744987, 246.09729693139903 -214.89982443730347 C295.94263455008775 -253.21238236715706, 476.2575048858455 -225.25320259273363, 522.3813044535648 -226.67457866261714" stroke="#000" stroke-width="2" fill="none"></path></g><g transform="translate(635.4643111456016 322.21432386125844) rotate(0 260.6755611957144 -108.33402965446635)"><path d="M495.3376132393816 -218.86554919707925 C502.2736055701542 -222.68460794164355, 509.6113018007088 -222.8089657533074, 523.3447584951948 -227.78453513945453 M493.197615855802 -218.6792519685194 C504.8133548298714 -222.01996143662305, 514.1289682958801 -224.95278081937084, 521.9729572771769 -226.00113008323126" stroke="#000" stroke-width="2" fill="none"></path></g><g transform="translate(635.4643111456016 322.21432386125844) rotate(0 260.6755611957144 -108.33402965446635)"><path d="M496.5189811996124 -239.3527249938644 C503.17924761410444 -236.99143808991536, 510.16072144427665 -230.93821940969406, 523.3447584951948 -227.78453513945453 M494.3789838160328 -239.16642776530455 C505.7025151093629 -235.0380418165079, 514.5874664035194 -230.50235695605875, 521.9729572771769 -226.00113008323126" stroke="#000" stroke-width="2" fill="none"></path></g></g></svg>