<svg version="1.1" xmlns="http://www.w3.org/2000/svg" viewBox="0 0 1804.1670227050781 512.4999618530273" width="1804.1670227050781" height="512.4999618530273">
  <!-- svg-source:excalidraw -->
  
  <defs>
    <style>
      @font-face {
        font-family: "Virgil";
        src: url("https://excalidraw.com/FG_Virgil.woff2");
      }
      @font-face {
        font-family: "Cascadia";
        src: url("https://excalidraw.com/Cascadia.woff2");
      }
    </style>
  </defs>
  <g transform="translate(10 36.66667938232422) rotate(0 325.0001525878906 121.66667938232422)"><path d="M0.6381652075797319 0.8727350812405348 L649.7954117376357 1.5888472776859999 L649.247246356681 244.43110197596252 L1.1625533420592546 244.94573330692947" stroke="none" stroke-width="0" fill="#2b373e"></path><path d="M-0.03057389333844185 -0.6324053399264813 C250.67769870594304 2.3821865570472975, 501.80125374541007 2.5185524237083694, 649.6865839235485 0.3614334709942341 M0.22829666770994664 0.10844702683389187 C223.49665436391695 1.4557910174127406, 447.6426064357343 1.43894418179949, 650.3288655940444 -0.06005002297461033 M648.7409713604076 0.3605250529171575 C652.0612663751951 55.92832833417774, 651.9951210146814 111.10562645721728, 649.5982852346891 243.10501253838376 M649.3154510277311 -0.07652545403353914 C651.0276308337477 69.02124793614033, 651.6185831935072 138.63967092547378, 649.2230252317668 243.32194783799363 M649.8307555191219 243.00188216045498 C418.01636310060724 242.9042859887163, 187.44982148165303 242.07201629629535, -0.0872444398701191 243.1570017941296 M649.9866032902152 243.52964060269295 C400.66586024815916 242.10903546181046, 150.69431802702601 242.27319830026946, 0.30848645605146885 243.08307882510127 M0.10874020212468333 244.42228427096512 C-0.19317937811909647 148.22826823418276, -0.5150493093612964 56.18877156546159, 0.83585674566367 -0.00798786366194888 M-0.08018529618685227 243.24902431853107 C-0.7484491519487261 192.68451404979717, -1.1039511520654997 142.24269470663265, -0.04534559323255725 -0.31681900506488275" stroke="#5557dd" stroke-width="2" fill="none"></path></g><g transform="translate(1144.1667175292969 10) rotate(0 325.0001525878906 121.66667938232422)"><path d="M-0.13863435201346874 -0.01880604214966297 L650.2138445694 -0.23993063159286976 L648.3087875563651 244.08635192923248 L-0.2669523637741804 245.27580702118576" stroke="none" stroke-width="0" fill="#2b373e"></path><path d="M-0.16954965665936472 -0.33147660419344904 C230.56962003121873 1.689689008386903, 462.5566405186574 0.8574193159659433, 649.9130607359111 -0.17635697051882746 M-0.01370188556611538 0.1962818380445242 C249.97565342207673 0.9995591219095161, 499.31420955064243 1.163721960368531, 650.3087916318327 -0.25027993954718114 M650.1090453779059 1.0889255063166903 C653.5030987721566 91.9012333730482, 653.1812288409144 186.8680606078409, 650.836161921445 243.32537090098648 M649.9201198795944 -0.0843344461173753 C650.6418963267053 51.019085083907974, 650.2863943265885 102.24519553950265, 649.9549595825487 243.01653975958357 M650.6358440868556 243.03213523700833 C434.69893192360297 243.53201850682592, 219.1643139192858 242.63960934907294, -0.0375040777027607 242.57402397468687 M649.8508196417242 243.51714429818094 C410.59543839069994 243.36040996980356, 170.92492690591098 243.5177406854598, -0.33169096074998383 243.47899240218104 M1.3325687254077387 241.96444504904645 C-2.8847705550536613 153.17297497340238, -0.7024708814641507 62.58548872020494, -1.1723364522676438 1.4827425431531538 M0.10053467450138591 243.99582810487348 C0.8008748024000716 171.32149195205776, 0.07678454733593851 99.22226768736066, -0.590467926373498 0.12703040494231893" stroke="#5557dd" stroke-width="2" fill="none"></path></g><g transform="translate(1361.6668701171875 25.33332061767578) rotate(0 116 59.03571428571422)"><text x="0" y="86.0714285714286" font-family="Virgil, Segoe UI Emoji" font-size="74.57142857142858px" fill="#fff" text-anchor="start" style="white-space: pre;" direction="ltr">[post]</text></g><g transform="translate(259.8331298828125 67.63096509661045) rotate(0 84 75.5)"><text x="0" y="109" font-family="Virgil, Segoe UI Emoji" font-size="95.2856568175477px" fill="#fff" text-anchor="start" style="white-space: pre;" direction="ltr">mdx</text></g><g transform="translate(10 273.3333206176758) rotate(0 293.33343505859375 60)"><path d="M-0.4043228905647993 -1.070250453427434 L588.6072327215225 -0.7567261476069689 L586.7389989811927 121.73239439539611 L0.4098601657897234 120.36006283573806" stroke="none" stroke-width="0" fill="#2b373e"></path><path d="M-0.4270063884556294 0.7746228583157063 C137.36500956013595 0.5049828618499419, 274.8254329489131 0.3445713847610137, 587.1798609010875 -0.6218703620135785 M0.08205490745604038 0.07243781052529812 C124.20097944608253 -1.3418373901679046, 248.84593586031934 -1.4954518039061555, 586.8805852595717 0.24363802634179593 M586.2102957349271 0.6979939062148333 C586.9460126131773 30.288613600656394, 585.5963270038367 63.14965146221221, 587.1866905670613 120.25293585844338 M587.25648610387 -0.6467068502679467 C588.0860142579302 45.56922684889287, 587.3664722016081 89.35556364711374, 586.9694114485756 119.9726074328646 M585.973739527911 119.49332503154874 C426.2004263603546 118.58984668499288, 266.3280889923588 119.49204964882192, 0.21856915876269342 120.15186263397337 M586.6939381901175 120.20294840298592 C457.2341871366293 119.31987849794952, 328.672074404064 119.88164875828353, -0.0724721010774374 120.09920889101923 M-0.7310500759631395 119.48178318329155 C1.704392122477293 79.86766698025167, -0.7823593743145466 42.51481367088854, 1.6036783438175917 -0.8426655810326338 M-0.032666697166860104 119.14586105849594 C0.2541165677830577 85.11604244541377, 0.9302253751084208 51.425853005610406, -0.5488043865188956 0.6634583463892341" stroke="#fff" stroke-width="2" fill="none"></path></g><g transform="translate(100 286.1666793823242) rotate(0 111.74265971936677 46.83332061767578)"><text x="0" y="68.66664123535158" font-family="Virgil, Segoe UI Emoji" font-size="59.15787867495889px" fill="#fff" text-anchor="start" style="white-space: pre;" direction="ltr">file1.mdx</text></g><g transform="translate(19.16656494140625 382.49996185302734) rotate(0 293.33343505859375 60)"><path d="M-1.991013614460826 -0.2181836385279894 L586.7244547326118 -0.33302885480225086 L587.0310199577361 121.87695312313735 L-1.5957930367439985 121.47432333044708" stroke="none" stroke-width="0" fill="#2b373e"></path><path d="M0.6929577581584454 0.16394406631588937 C233.06140896833247 0.15262633503081133, 465.69467875150457 -0.7167229777514763, 586.9661038868129 -0.48670641109347346 M0.3596321526914835 -0.1963574294000864 C219.65147610011277 1.7152727790465974, 439.3068885442381 2.0194903202644015, 586.8167894426733 -0.04423947371542454 M586.0016325693578 0.3183287102729082 C584.1729204386472 26.0649801325053, 586.1749556392431 53.7970765773207, 588.1327992063016 121.86306062527001 M586.831714884378 -0.7782429466024041 C585.4322981765494 34.38566579204053, 585.1639861693606 69.49342123325914, 586.9891506889835 120.80548116471618 M586.9885294191539 120.41616522148252 C447.67517630972935 119.0368101500484, 307.7607726326778 119.19653035630907, -0.04582109525799752 119.36991080120205 M586.4130063716323 120.143138301 C457.11486568419485 119.38229008257423, 328.1386186887741 119.5323366338018, -0.06931311450898647 119.78664953671395 M-0.36414790339767933 118.21655509062111 C-0.2634252555668354 91.2574537601322, 0.8982969872653485 63.958235928788774, -0.10938888974487782 -0.31109687499701977 M-0.16456262674182653 120.39744454529136 C-1.2191626401618123 90.109971861355, -1.1650049360468984 60.100025079213076, -0.3932333132252097 0.23473730590194464" stroke="#fff" stroke-width="2" fill="none"></path></g><g transform="translate(98.33328247070312 394.50003814697266) rotate(0 124.40646777236668 45.16667938232422)"><text x="0" y="64.33335876464845" font-family="Virgil, Segoe UI Emoji" font-size="57.0526476408306px" fill="#fff" text-anchor="start" style="white-space: pre;" direction="ltr">file2.mdx</text></g><g><g transform="translate(620 448.1376825567295) rotate(0 255.21096897762266 -162.9140612599931)"><path d="M0.9253386329859496 0.6211528647691011 C86.07892977707088 -53.69650748836272, 425.6065292906016 -272.20349575366936, 510.4699352692813 -326.4492753847553 M-0.04799731403589247 -0.09834582656621937 C85.02820789188146 -54.21262746656709, 424.8613382992149 -270.77784098450206, 509.76860582202676 -325.203023808585" stroke="#000" stroke-width="2" fill="none"></path></g><g transform="translate(620 448.1376825567295) rotate(0 255.21096897762266 -162.9140612599931)"><path d="M492.57078674820025 -300.5963851274756 C495.5027674281363 -307.59436429664504, 502.94608472379934 -313.06047762574144, 508.0502520718426 -323.85689894905823 M490.6549043870788 -302.153838822229 C494.9606871774321 -307.9240574620882, 500.888195761029 -311.8575278653731, 510.1245356297866 -326.11527343424547" stroke="#000" stroke-width="2" fill="none"></path></g><g transform="translate(620 448.1376825567295) rotate(0 255.21096897762266 -162.9140612599931)"><path d="M481.52312084789577 -317.88999899332475 C487.27533138094276 -320.43591731535656, 497.6171772782984 -321.36477953013315, 508.0502520718426 -323.85689894905823 M479.6072384867743 -319.4474526880781 C486.6861026651479 -321.0853719236836, 495.2612364250502 -320.8743462973354, 510.1245356297866 -326.11527343424547" stroke="#000" stroke-width="2" fill="none"></path></g></g><g><g transform="translate(603.3334350585938 326.8840564159741) rotate(0 258.64687326312065 -108.52322364976749)"><path d="M0.413601441308856 -0.6448265802115202 C86.37537269505361 -37.019098181433144, 429.6755322010567 -182.3574283659789, 515.8427115511149 -218.67748281937338 M-0.82839653134346 1.631035519838333 C85.5069589094321 -34.52094391801125, 431.8099455757935 -180.7694164408329, 518.1221430575847 -217.25923401344812" stroke="#000" stroke-width="2" fill="none"></path></g><g transform="translate(603.3334350585938 326.8840564159741) rotate(0 258.64687326312065 -108.52322364976749)"><path d="M495.0716005645088 -198.21020683026876 C502.5662265774033 -201.9119843599722, 509.4782007723163 -211.0642919871498, 519.3591407196968 -218.1450861994574 M496.70073797901637 -196.1180711354595 C500.8686777569653 -201.29957387239273, 506.58745109664324 -207.37099928236367, 518.4048671260848 -217.88572344504541" stroke="#000" stroke-width="2" fill="none"></path></g><g transform="translate(603.3334350585938 326.8840564159741) rotate(0 258.64687326312065 -108.52322364976749)"><path d="M487.0858852313853 -217.11386660831582 C496.9561660036654 -215.05851606995552, 506.31182500958494 -218.42617143430556, 519.3591407196968 -218.1450861994574 M488.7150226458929 -215.02173091350656 C494.80529311438937 -215.51941886302447, 502.53212614060783 -216.83739695551802, 518.4048671260848 -217.88572344504541" stroke="#000" stroke-width="2" fill="none"></path></g></g></svg>