<svg width="980" height="450" viewBox="0 0 980 450" fill="none" xmlns="http://www.w3.org/2000/svg">
<rect width="980" height="450" fill="white"/>
<rect width="980" height="450" fill="url(#paint0_linear)"/>
<g clip-path="url(#clip0)">
<path d="M520.096 74.0012L489.872 126.352L459.647 74.0012H358.995L489.872 300.689L620.749 74.0012H520.096Z" fill="#41B883"/>
<path d="M520.096 74.0012L489.872 126.352L459.647 74.0012H411.346L489.872 210.011L568.398 74.0012H520.096Z" fill="#34495E"/>
</g>
<path d="M409.653 401H445.551V393.074H422.744V392.716L431.77 383.537C441.946 373.77 444.759 369.014 444.759 363.108C444.759 354.338 437.625 347.92 427.091 347.92C416.71 347.92 409.347 354.364 409.347 364.31H418.372C418.372 358.966 421.747 355.616 426.963 355.616C431.949 355.616 435.656 358.659 435.656 363.594C435.656 367.966 432.997 371.085 427.832 376.327L409.653 394.148V401ZM473.727 401.997C486.358 402.023 493.901 392.051 493.901 374.869C493.901 357.79 486.307 347.92 473.727 347.92C461.148 347.92 453.58 357.764 453.554 374.869C453.554 392.026 461.097 401.997 473.727 401.997ZM473.727 393.994C467.207 393.994 463.116 387.449 463.142 374.869C463.168 362.392 467.233 355.821 473.727 355.821C480.247 355.821 484.312 362.392 484.338 374.869C484.338 387.449 480.273 393.994 473.727 393.994ZM523.694 348.636H514.668L501.654 356.997V365.69L513.901 357.866H514.208V401H523.694V348.636ZM538.907 401H548.751L570.995 356.741V348.636H535.327V356.562H561.177V356.92L538.907 401Z" fill="white"/>
<defs>
<linearGradient id="paint0_linear" x1="6.00001" y1="7.99999" x2="490" y2="450" gradientUnits="userSpaceOnUse">
<stop stop-color="#2A3B83"/>
<stop offset="1" stop-color="#43A04F"/>
</linearGradient>
<clipPath id="clip0">
<rect width="261.76" height="226.69" fill="white" transform="translate(359 74)"/>
</clipPath>
</defs>
</svg>
