<?xml version="1.0" encoding="UTF-8" standalone="no"?><!DOCTYPE svg PUBLIC "-//W3C//DTD SVG 1.1//EN" "http://www.w3.org/Graphics/SVG/1.1/DTD/svg11.dtd"><svg width="100%" height="100%" viewBox="0 0 240 240" version="1.1" xmlns="http://www.w3.org/2000/svg" xmlns:xlink="http://www.w3.org/1999/xlink" xml:space="preserve" style="fill-rule:evenodd;clip-rule:evenodd;stroke-linejoin:round;stroke-miterlimit:1.41421;"><path d="M140.445,15.51c-8.216,-1.608 -16.593,-2.241 -24.957,-1.886l-1.241,29.933c-5.676,0.427 -11.287,1.485 -16.729,3.154l-12.057,-27.425c-7.919,2.716 -15.49,6.357 -22.557,10.846l13.892,26.543c-4.702,3.208 -9.032,6.93 -12.91,11.096l-24.154,-17.722c-5.501,6.311 -10.237,13.25 -14.112,20.671l25.302,16.041c-2.469,5.129 -4.358,10.517 -5.633,16.065l-29.779,-3.271c-1.608,8.216 -2.241,16.593 -1.886,24.957l29.933,1.241c0.427,5.676 1.485,11.287 3.154,16.729l-27.425,12.057c2.716,7.919 6.357,15.49 10.846,22.557l26.543,-13.892c3.208,4.702 6.93,9.032 11.096,12.91l-17.722,24.154c6.311,5.501 13.25,10.237 20.671,14.112l16.041,-25.302c5.129,2.469 10.517,4.358 16.065,5.633l-3.271,29.779c8.216,1.608 16.593,2.241 24.957,1.886l1.241,-29.933c5.676,-0.427 11.287,-1.485 16.729,-3.154l12.057,27.425c7.919,-2.716 15.49,-6.357 22.557,-10.846l-13.892,-26.543c4.702,-3.208 9.032,-6.93 12.91,-11.096l24.154,17.722c5.501,-6.311 10.237,-13.25 14.112,-20.671l-25.302,-16.041c2.469,-5.129 4.358,-10.517 5.633,-16.065l29.779,3.271c1.608,-8.216 2.241,-16.593 1.886,-24.957l-29.933,-1.241c-0.427,-5.676 -1.485,-11.287 -3.154,-16.729l27.425,-12.057c-2.716,-7.919 -6.357,-15.49 -10.846,-22.557l-26.543,13.892c-3.208,-4.702 -6.93,-9.032 -11.096,-12.91l17.722,-24.154c-6.311,-5.501 -13.25,-10.237 -20.671,-14.112l-16.041,25.302c-5.129,-2.469 -10.517,-4.358 -16.065,-5.633l3.271,-29.779Zm-17.477,65.208c21.681,1.638 37.953,20.57 36.314,42.25c-1.638,21.681 -20.57,37.953 -42.25,36.314c-21.681,-1.638 -37.953,-20.57 -36.314,-42.25c1.638,-21.681 20.57,-37.953 42.25,-36.314Z" style="fill:#fff;"/></svg>