<?xml version="1.0" encoding="UTF-8" standalone="no"?><!DOCTYPE svg PUBLIC "-//W3C//DTD SVG 1.1//EN" "http://www.w3.org/Graphics/SVG/1.1/DTD/svg11.dtd"><svg width="100%" height="100%" viewBox="0 0 131 82" version="1.1" xmlns="http://www.w3.org/2000/svg" xmlns:xlink="http://www.w3.org/1999/xlink" xml:space="preserve" style="fill-rule:evenodd;clip-rule:evenodd;stroke-linejoin:round;stroke-miterlimit:1.41421;"><g><path d="M130.56,2.448c0,-1.351 -1.097,-2.448 -2.448,-2.448l-125.664,0c-1.351,0 -2.448,1.097 -2.448,2.448l0,76.704c0,1.351 1.097,2.448 2.448,2.448l125.664,0c1.351,0 2.448,-1.097 2.448,-2.448l0,-76.704Z"/><path d="M128.144,0l0.031,0.001l0.032,0.001l0.031,0.001l0.031,0.002l0.031,0.002l0.031,0.003l0.031,0.003l0.031,0.003l0.031,0.004l0.03,0.004l0.031,0.004l0.03,0.005l0.03,0.005l0.03,0.006l0.03,0.006l0.03,0.006l0.03,0.007l0.029,0.007l0.029,0.007l0.03,0.008l0.029,0.008l0.029,0.008l0.029,0.009l0.028,0.009l0.029,0.01l0.028,0.01l0.028,0.01l0.028,0.01l0.028,0.011l0.028,0.011l0.027,0.012l0.028,0.011l0.027,0.012l0.027,0.013l0.027,0.013l0.027,0.013l0.026,0.013l0.026,0.014l0.026,0.014l0.026,0.014l0.026,0.015l0.026,0.014l0.025,0.016l0.025,0.015l0.025,0.016l0.025,0.016l0.024,0.016l0.025,0.017l0.024,0.017l0.024,0.017l0.023,0.018l0.024,0.017l0.023,0.018l0.023,0.019l0.023,0.018l0.022,0.019l0.023,0.019l0.022,0.02l0.022,0.019l0.021,0.02l0.022,0.02l0.021,0.021l0.021,0.02l0.02,0.021l0.021,0.021l0.02,0.022l0.02,0.021l0.019,0.022l0.02,0.022l0.019,0.023l0.019,0.022l0.018,0.023l0.019,0.023l0.018,0.023l0.017,0.024l0.018,0.023l0.017,0.024l0.017,0.024l0.017,0.025l0.016,0.024l0.016,0.025l0.016,0.025l0.015,0.025l0.016,0.025l0.014,0.026l0.015,0.026l0.014,0.026l0.014,0.026l0.014,0.026l0.013,0.026l0.013,0.027l0.013,0.027l0.013,0.027l0.012,0.027l0.011,0.028l0.012,0.027l0.011,0.028l0.011,0.028l0.01,0.028l0.01,0.028l0.01,0.028l0.01,0.029l0.009,0.028l0.009,0.029l0.008,0.029l0.008,0.029l0.008,0.03l0.007,0.029l0.007,0.029l0.007,0.03l0.006,0.03l0.006,0.03l0.006,0.03l0.005,0.03l0.005,0.03l0.004,0.031l0.004,0.03l0.004,0.031l0.003,0.031l0.003,0.031l0.003,0.031l0.002,0.031l0.002,0.031l0.001,0.031l0.001,0.032l0.001,0.031l0,0.032l0,76.704l0,0.032l-0.001,0.031l-0.001,0.032l-0.001,0.031l-0.002,0.031l-0.002,0.031l-0.003,0.031l-0.003,0.031l-0.003,0.031l-0.004,0.031l-0.004,0.03l-0.004,0.031l-0.005,0.03l-0.005,0.03l-0.006,0.03l-0.006,0.03l-0.006,0.03l-0.007,0.03l-0.007,0.029l-0.007,0.029l-0.008,0.03l-0.008,0.029l-0.008,0.029l-0.009,0.029l-0.009,0.028l-0.01,0.029l-0.01,0.028l-0.01,0.028l-0.01,0.028l-0.011,0.028l-0.011,0.028l-0.012,0.027l-0.011,0.028l-0.012,0.027l-0.013,0.027l-0.013,0.027l-0.013,0.027l-0.013,0.026l-0.014,0.026l-0.014,0.026l-0.014,0.026l-0.015,0.026l-0.014,0.026l-0.016,0.025l-0.015,0.025l-0.016,0.025l-0.016,0.025l-0.016,0.024l-0.017,0.025l-0.017,0.024l-0.017,0.024l-0.018,0.023l-0.017,0.024l-0.018,0.023l-0.019,0.023l-0.018,0.023l-0.019,0.022l-0.019,0.023l-0.02,0.022l-0.019,0.022l-0.02,0.021l-0.02,0.022l-0.021,0.021l-0.02,0.021l-0.021,0.02l-0.021,0.021l-0.022,0.02l-0.021,0.02l-0.022,0.019l-0.022,0.02l-0.023,0.019l-0.022,0.019l-0.023,0.018l-0.023,0.019l-0.023,0.018l-0.024,0.017l-0.023,0.018l-0.024,0.017l-0.024,0.017l-0.025,0.017l-0.024,0.016l-0.025,0.016l-0.025,0.016l-0.025,0.015l-0.025,0.016l-0.026,0.014l-0.026,0.015l-0.026,0.014l-0.026,0.014l-0.026,0.014l-0.026,0.013l-0.027,0.013l-0.027,0.013l-0.027,0.013l-0.027,0.012l-0.028,0.011l-0.027,0.012l-0.028,0.011l-0.028,0.011l-0.028,0.01l-0.028,0.01l-0.028,0.01l-0.029,0.01l-0.028,0.009l-0.029,0.009l-0.029,0.008l-0.029,0.008l-0.03,0.008l-0.029,0.007l-0.029,0.007l-0.03,0.007l-0.03,0.006l-0.03,0.006l-0.03,0.006l-0.03,0.005l-0.03,0.005l-0.031,0.004l-0.03,0.004l-0.031,0.004l-0.031,0.003l-0.031,0.003l-0.031,0.003l-0.031,0.002l-0.031,0.002l-0.031,0.001l-0.032,0.001l-0.031,0.001l-0.032,0l-125.664,0l-0.032,0l-0.031,-0.001l-0.032,-0.001l-0.031,-0.001l-0.031,-0.002l-0.031,-0.002l-0.031,-0.003l-0.031,-0.003l-0.031,-0.003l-0.031,-0.004l-0.03,-0.004l-0.031,-0.004l-0.03,-0.005l-0.03,-0.005l-0.03,-0.006l-0.03,-0.006l-0.03,-0.006l-0.03,-0.007l-0.029,-0.007l-0.029,-0.007l-0.03,-0.008l-0.029,-0.008l-0.029,-0.008l-0.029,-0.009l-0.028,-0.009l-0.029,-0.01l-0.028,-0.01l-0.028,-0.01l-0.028,-0.01l-0.028,-0.011l-0.028,-0.011l-0.027,-0.012l-0.028,-0.011l-0.027,-0.012l-0.027,-0.013l-0.027,-0.013l-0.027,-0.013l-0.026,-0.013l-0.026,-0.014l-0.026,-0.014l-0.026,-0.014l-0.026,-0.015l-0.026,-0.014l-0.025,-0.016l-0.025,-0.015l-0.025,-0.016l-0.025,-0.016l-0.024,-0.016l-0.025,-0.017l-0.024,-0.017l-0.024,-0.017l-0.023,-0.018l-0.024,-0.017l-0.023,-0.018l-0.023,-0.019l-0.023,-0.018l-0.022,-0.019l-0.023,-0.019l-0.022,-0.02l-0.022,-0.019l-0.021,-0.02l-0.022,-0.02l-0.021,-0.021l-0.021,-0.02l-0.02,-0.021l-0.021,-0.021l-0.02,-0.022l-0.02,-0.021l-0.019,-0.022l-0.02,-0.022l-0.019,-0.023l-0.019,-0.022l-0.018,-0.023l-0.019,-0.023l-0.018,-0.023l-0.017,-0.024l-0.018,-0.023l-0.017,-0.024l-0.017,-0.024l-0.017,-0.025l-0.016,-0.024l-0.016,-0.025l-0.016,-0.025l-0.015,-0.025l-0.016,-0.025l-0.014,-0.026l-0.015,-0.026l-0.014,-0.026l-0.014,-0.026l-0.014,-0.026l-0.013,-0.026l-0.013,-0.027l-0.013,-0.027l-0.013,-0.027l-0.012,-0.027l-0.011,-0.028l-0.012,-0.027l-0.011,-0.028l-0.011,-0.028l-0.01,-0.028l-0.01,-0.028l-0.01,-0.028l-0.01,-0.029l-0.009,-0.028l-0.009,-0.029l-0.008,-0.029l-0.008,-0.029l-0.008,-0.03l-0.007,-0.029l-0.007,-0.029l-0.007,-0.03l-0.006,-0.03l-0.006,-0.03l-0.006,-0.03l-0.005,-0.03l-0.005,-0.03l-0.004,-0.031l-0.004,-0.03l-0.004,-0.031l-0.003,-0.031l-0.003,-0.031l-0.003,-0.031l-0.002,-0.031l-0.002,-0.031l-0.001,-0.031l-0.001,-0.032l-0.001,-0.031l0,-0.032l0,-76.704l0,-0.032l0.001,-0.031l0.001,-0.032l0.001,-0.031l0.002,-0.031l0.002,-0.031l0.003,-0.031l0.003,-0.031l0.003,-0.031l0.004,-0.031l0.004,-0.03l0.004,-0.031l0.005,-0.03l0.005,-0.03l0.006,-0.03l0.006,-0.03l0.006,-0.03l0.007,-0.03l0.007,-0.029l0.007,-0.029l0.008,-0.03l0.008,-0.029l0.008,-0.029l0.009,-0.029l0.009,-0.028l0.01,-0.029l0.01,-0.028l0.01,-0.028l0.01,-0.028l0.011,-0.028l0.011,-0.028l0.012,-0.027l0.011,-0.028l0.012,-0.027l0.013,-0.027l0.013,-0.027l0.013,-0.027l0.013,-0.026l0.014,-0.026l0.014,-0.026l0.014,-0.026l0.015,-0.026l0.014,-0.026l0.016,-0.025l0.015,-0.025l0.016,-0.025l0.016,-0.025l0.016,-0.024l0.017,-0.025l0.017,-0.024l0.017,-0.024l0.018,-0.023l0.017,-0.024l0.018,-0.023l0.019,-0.023l0.018,-0.023l0.019,-0.022l0.019,-0.023l0.02,-0.022l0.019,-0.022l0.02,-0.021l0.02,-0.022l0.021,-0.021l0.02,-0.021l0.021,-0.02l0.021,-0.021l0.022,-0.02l0.021,-0.02l0.022,-0.019l0.022,-0.02l0.023,-0.019l0.022,-0.019l0.023,-0.018l0.023,-0.019l0.023,-0.018l0.024,-0.017l0.023,-0.018l0.024,-0.017l0.024,-0.017l0.025,-0.017l0.024,-0.016l0.025,-0.016l0.025,-0.016l0.025,-0.015l0.025,-0.016l0.026,-0.014l0.026,-0.015l0.026,-0.014l0.026,-0.014l0.026,-0.014l0.026,-0.013l0.027,-0.013l0.027,-0.013l0.027,-0.013l0.027,-0.012l0.028,-0.011l0.027,-0.012l0.028,-0.011l0.028,-0.011l0.028,-0.01l0.028,-0.01l0.028,-0.01l0.029,-0.01l0.028,-0.009l0.029,-0.009l0.029,-0.008l0.029,-0.008l0.03,-0.008l0.029,-0.007l0.029,-0.007l0.03,-0.007l0.03,-0.006l0.03,-0.006l0.03,-0.006l0.03,-0.005l0.03,-0.005l0.031,-0.004l0.03,-0.004l0.031,-0.004l0.031,-0.003l0.031,-0.003l0.031,-0.003l0.031,-0.002l0.031,-0.002l0.031,-0.001l0.032,-0.001l0.031,-0.001l0.032,0l125.664,0l0.032,0Zm-125.696,0.092l-0.03,0l-0.031,0l-0.03,0.001l-0.03,0.002l-0.03,0.001l-0.03,0.003l-0.03,0.002l-0.03,0.003l-0.03,0.003l-0.029,0.004l-0.029,0.004l-0.03,0.004l-0.029,0.004l-0.029,0.006l-0.029,0.005l-0.029,0.006l-0.028,0.006l-0.029,0.006l-0.028,0.007l-0.029,0.007l-0.028,0.007l-0.028,0.008l-0.028,0.008l-0.027,0.009l-0.028,0.008l-0.027,0.01l-0.028,0.009l-0.027,0.01l-0.027,0.01l-0.027,0.01l-0.026,0.011l-0.027,0.011l-0.026,0.011l-0.026,0.012l-0.026,0.012l-0.026,0.012l-0.026,0.013l-0.025,0.013l-0.026,0.013l-0.025,0.013l-0.025,0.014l-0.024,0.014l-0.025,0.014l-0.024,0.015l-0.025,0.015l-0.024,0.015l-0.023,0.016l-0.024,0.015l-0.023,0.016l-0.024,0.017l-0.023,0.016l-0.022,0.017l-0.023,0.017l-0.022,0.017l-0.022,0.018l-0.022,0.018l-0.022,0.018l-0.022,0.019l-0.021,0.018l-0.021,0.019l-0.021,0.019l-0.02,0.02l-0.021,0.019l-0.02,0.02l-0.02,0.02l-0.019,0.021l-0.02,0.02l-0.019,0.021l-0.019,0.021l-0.018,0.021l-0.019,0.022l-0.018,0.022l-0.018,0.022l-0.018,0.022l-0.017,0.022l-0.017,0.023l-0.017,0.022l-0.016,0.023l-0.017,0.024l-0.016,0.023l-0.015,0.024l-0.016,0.023l-0.015,0.024l-0.015,0.025l-0.015,0.024l-0.014,0.025l-0.014,0.024l-0.014,0.025l-0.013,0.025l-0.013,0.026l-0.013,0.025l-0.013,0.026l-0.012,0.026l-0.012,0.026l-0.012,0.026l-0.011,0.026l-0.011,0.027l-0.011,0.026l-0.01,0.027l-0.01,0.027l-0.01,0.027l-0.009,0.028l-0.01,0.027l-0.008,0.028l-0.009,0.027l-0.008,0.028l-0.008,0.028l-0.007,0.028l-0.007,0.029l-0.007,0.028l-0.006,0.029l-0.006,0.028l-0.006,0.029l-0.005,0.029l-0.006,0.029l-0.004,0.029l-0.004,0.03l-0.004,0.029l-0.004,0.029l-0.003,0.03l-0.003,0.03l-0.002,0.03l-0.003,0.03l-0.001,0.03l-0.002,0.03l-0.001,0.03l0,0.031l0,0.03l0,76.704l0,0.03l0,0.031l0.001,0.03l0.002,0.03l0.001,0.03l0.003,0.03l0.002,0.03l0.003,0.03l0.003,0.03l0.004,0.029l0.004,0.029l0.004,0.03l0.004,0.029l0.006,0.029l0.005,0.029l0.006,0.029l0.006,0.028l0.006,0.029l0.007,0.028l0.007,0.029l0.007,0.028l0.008,0.028l0.008,0.028l0.009,0.027l0.008,0.028l0.01,0.027l0.009,0.028l0.01,0.027l0.01,0.027l0.01,0.027l0.011,0.026l0.011,0.027l0.011,0.026l0.012,0.026l0.012,0.026l0.012,0.026l0.013,0.026l0.013,0.025l0.013,0.026l0.013,0.025l0.014,0.025l0.014,0.024l0.014,0.025l0.015,0.024l0.015,0.025l0.015,0.024l0.016,0.023l0.015,0.024l0.016,0.023l0.017,0.024l0.016,0.023l0.017,0.022l0.017,0.023l0.017,0.022l0.018,0.022l0.018,0.022l0.018,0.022l0.019,0.022l0.018,0.021l0.019,0.021l0.019,0.021l0.02,0.02l0.019,0.021l0.02,0.02l0.02,0.02l0.021,0.019l0.02,0.02l0.021,0.019l0.021,0.019l0.021,0.018l0.022,0.019l0.022,0.018l0.022,0.018l0.022,0.018l0.022,0.017l0.023,0.017l0.022,0.017l0.023,0.016l0.024,0.017l0.023,0.016l0.024,0.015l0.023,0.016l0.024,0.015l0.025,0.015l0.024,0.015l0.025,0.014l0.024,0.014l0.025,0.014l0.025,0.013l0.026,0.013l0.025,0.013l0.026,0.013l0.026,0.012l0.026,0.012l0.026,0.012l0.026,0.011l0.027,0.011l0.026,0.011l0.027,0.01l0.027,0.01l0.027,0.01l0.028,0.009l0.027,0.01l0.028,0.008l0.027,0.009l0.028,0.008l0.028,0.008l0.028,0.007l0.029,0.007l0.028,0.007l0.029,0.006l0.028,0.006l0.029,0.006l0.029,0.005l0.029,0.006l0.029,0.004l0.03,0.004l0.029,0.004l0.029,0.004l0.03,0.003l0.03,0.003l0.03,0.002l0.03,0.003l0.03,0.001l0.03,0.002l0.03,0.001l0.031,0l0.03,0l125.664,0l0.03,0l0.031,0l0.03,-0.001l0.03,-0.002l0.03,-0.001l0.03,-0.003l0.03,-0.002l0.03,-0.003l0.03,-0.003l0.029,-0.004l0.029,-0.004l0.03,-0.004l0.029,-0.004l0.029,-0.006l0.029,-0.005l0.029,-0.006l0.028,-0.006l0.029,-0.006l0.028,-0.007l0.029,-0.007l0.028,-0.007l0.028,-0.008l0.028,-0.008l0.027,-0.009l0.028,-0.008l0.027,-0.01l0.028,-0.009l0.027,-0.01l0.027,-0.01l0.027,-0.01l0.026,-0.011l0.027,-0.011l0.026,-0.011l0.026,-0.012l0.026,-0.012l0.026,-0.012l0.026,-0.013l0.025,-0.013l0.026,-0.013l0.025,-0.013l0.025,-0.014l0.024,-0.014l0.025,-0.014l0.024,-0.015l0.025,-0.015l0.024,-0.015l0.023,-0.016l0.024,-0.015l0.023,-0.016l0.024,-0.017l0.023,-0.016l0.022,-0.017l0.023,-0.017l0.022,-0.017l0.022,-0.018l0.022,-0.018l0.022,-0.018l0.022,-0.019l0.021,-0.018l0.021,-0.019l0.021,-0.019l0.02,-0.02l0.021,-0.019l0.02,-0.02l0.02,-0.02l0.019,-0.021l0.02,-0.02l0.019,-0.021l0.019,-0.021l0.018,-0.021l0.019,-0.022l0.018,-0.022l0.018,-0.022l0.018,-0.022l0.017,-0.022l0.017,-0.023l0.017,-0.022l0.016,-0.023l0.017,-0.024l0.016,-0.023l0.015,-0.024l0.016,-0.023l0.015,-0.024l0.015,-0.025l0.015,-0.024l0.014,-0.025l0.014,-0.024l0.014,-0.025l0.013,-0.025l0.013,-0.026l0.013,-0.025l0.013,-0.026l0.012,-0.026l0.012,-0.026l0.012,-0.026l0.011,-0.026l0.011,-0.027l0.011,-0.026l0.01,-0.027l0.01,-0.027l0.01,-0.027l0.009,-0.028l0.01,-0.027l0.008,-0.028l0.009,-0.027l0.008,-0.028l0.008,-0.028l0.007,-0.028l0.007,-0.029l0.007,-0.028l0.006,-0.029l0.006,-0.028l0.006,-0.029l0.005,-0.029l0.006,-0.029l0.004,-0.029l0.004,-0.03l0.004,-0.029l0.004,-0.029l0.003,-0.03l0.003,-0.03l0.002,-0.03l0.003,-0.03l0.001,-0.03l0.002,-0.03l0.001,-0.03l0,-0.031l0,-0.03l0,-76.704l0,-0.03l0,-0.031l-0.001,-0.03l-0.002,-0.03l-0.001,-0.03l-0.003,-0.03l-0.002,-0.03l-0.003,-0.03l-0.003,-0.03l-0.004,-0.029l-0.004,-0.029l-0.004,-0.03l-0.004,-0.029l-0.006,-0.029l-0.005,-0.029l-0.006,-0.029l-0.006,-0.028l-0.006,-0.029l-0.007,-0.028l-0.007,-0.029l-0.007,-0.028l-0.008,-0.028l-0.008,-0.028l-0.009,-0.027l-0.008,-0.028l-0.01,-0.027l-0.009,-0.028l-0.01,-0.027l-0.01,-0.027l-0.01,-0.027l-0.011,-0.026l-0.011,-0.027l-0.011,-0.026l-0.012,-0.026l-0.012,-0.026l-0.012,-0.026l-0.013,-0.026l-0.013,-0.025l-0.013,-0.026l-0.013,-0.025l-0.014,-0.025l-0.014,-0.024l-0.014,-0.025l-0.015,-0.024l-0.015,-0.025l-0.015,-0.024l-0.016,-0.023l-0.015,-0.024l-0.016,-0.023l-0.017,-0.024l-0.016,-0.023l-0.017,-0.022l-0.017,-0.023l-0.017,-0.022l-0.018,-0.022l-0.018,-0.022l-0.018,-0.022l-0.019,-0.022l-0.018,-0.021l-0.019,-0.021l-0.019,-0.021l-0.02,-0.02l-0.019,-0.021l-0.02,-0.02l-0.02,-0.02l-0.021,-0.019l-0.02,-0.02l-0.021,-0.019l-0.021,-0.019l-0.021,-0.018l-0.022,-0.019l-0.022,-0.018l-0.022,-0.018l-0.022,-0.018l-0.022,-0.017l-0.023,-0.017l-0.022,-0.017l-0.023,-0.016l-0.024,-0.017l-0.023,-0.016l-0.024,-0.015l-0.023,-0.016l-0.024,-0.015l-0.025,-0.015l-0.024,-0.015l-0.025,-0.014l-0.024,-0.014l-0.025,-0.014l-0.025,-0.013l-0.026,-0.013l-0.025,-0.013l-0.026,-0.013l-0.026,-0.012l-0.026,-0.012l-0.026,-0.012l-0.026,-0.011l-0.027,-0.011l-0.026,-0.011l-0.027,-0.01l-0.027,-0.01l-0.027,-0.01l-0.028,-0.009l-0.027,-0.01l-0.028,-0.008l-0.027,-0.009l-0.028,-0.008l-0.028,-0.008l-0.028,-0.007l-0.029,-0.007l-0.028,-0.007l-0.029,-0.006l-0.028,-0.006l-0.029,-0.006l-0.029,-0.005l-0.029,-0.006l-0.029,-0.004l-0.03,-0.004l-0.029,-0.004l-0.029,-0.004l-0.03,-0.003l-0.03,-0.003l-0.03,-0.002l-0.03,-0.003l-0.03,-0.001l-0.03,-0.002l-0.03,-0.001l-0.031,0l-0.03,0l-125.664,0Z" style="fill:#383900;"/></g><path d="M4.095,7.984l1.319,2.602l-2.637,0l1.318,-2.602Z" style="fill:#fff;"/><text x="7.162px" y="10.586px" style="font-family:'SourceCodePro-Regular', 'Source Code Pro', monospace;font-size:3.653px;fill:#fff;">~ dotnet build skadisteam</text><path d="M4.235,12.185l1.318,2.601l-2.637,0l1.319,-2.601Z" style="fill:#fff;"/><text x="7.162px" y="14.786px" style="font-family:'SourceCodePro-Regular', 'Source Code Pro', monospace;font-size:3.653px;fill:#fff;">~ dotnet run skadisteam</text><path d="M4.235,16.385l1.318,2.601l-2.637,0l1.319,-2.601Z" style="fill:#fff;"/><text x="7.302px" y="18.986px" style="font-family:'SourceCodePro-Regular', 'Source Code Pro', monospace;font-size:3.653px;fill:#fff;">~ Trade #1118348 incoming containing Item #132</text><text x="61.738px" y="4.108px" style="font-family:'SourceCodePro-Regular', 'Source Code Pro', monospace;font-size:2.842px;fill:#fff;">ba<tspan x="65.257px " y="4.108px ">s</tspan>h</text><ellipse cx="3.581" cy="3.113" rx="1.028" ry="1.029" style="fill:#f50202;"/><ellipse cx="6.441" cy="3.113" rx="1.028" ry="1.029" style="fill:#f5eb02;"/><ellipse cx="9.301" cy="3.113" rx="1.028" ry="1.029" style="fill:#1df502;"/></svg>